<?xml version="1.0" encoding="UTF-8" standalone="no"?>
<!DOCTYPE svg PUBLIC "-//W3C//DTD SVG 1.1//EN"
 "http://www.w3.org/Graphics/SVG/1.1/DTD/svg11.dtd">
<!-- Generated by graphviz version 13.1.2 (20250808.2320)
 -->
<!-- Title: G Pages: 1 -->
<svg width="669pt" height="931pt"
 viewBox="0.00 0.00 669.00 931.00" xmlns="http://www.w3.org/2000/svg" xmlns:xlink="http://www.w3.org/1999/xlink">
<g id="graph0" class="graph" transform="scale(1 1) rotate(0) translate(36 894.57)">
<title>G</title>
<polygon fill="#f7f7f7" stroke="none" points="-36,36 -36,-894.57 633,-894.57 633,36 -36,36"/>
<!-- appmodelsartikel -->
<g id="node1" class="node">
<title>appmodelsartikel</title>
<polygon fill="none" stroke="black" points="100,-346.57 0,-346.57 0,-246.57 100,-246.57 100,-346.57"/>
<polygon fill="#d3d3d3" stroke="none" points="0,-307.32 0,-346.57 100,-346.57 100,-307.32 0,-307.32"/>
<polygon fill="none" stroke="black" points="0,-307.32 0,-346.57 100,-346.57 100,-307.32 0,-307.32"/>
<text xml:space="preserve" text-anchor="start" x="30.88" y="-322.27" font-family="Helvetica Neue" font-size="14.00" fill="#333333">Artikel</text>
</g>
<!-- appmodelsuser -->
<g id="node2" class="node">
<title>appmodelsuser</title>
<polygon fill="none" stroke="black" points="348.5,-295.57 248.5,-295.57 248.5,-195.57 348.5,-195.57 348.5,-295.57"/>
<polygon fill="#d3d3d3" stroke="none" points="248.5,-256.32 248.5,-295.57 348.5,-295.57 348.5,-256.32 248.5,-256.32"/>
<polygon fill="none" stroke="black" points="248.5,-256.32 248.5,-295.57 348.5,-295.57 348.5,-256.32 248.5,-256.32"/>
<text xml:space="preserve" text-anchor="start" x="284.62" y="-271.27" font-family="Helvetica Neue" font-size="14.00" fill="#333333">User</text>
</g>
<!-- appmodelsartikel&#45;&gt;appmodelsuser -->
<g id="edge1" class="edge">
<title>appmodelsartikel:user_id&#45;&gt;appmodelsuser:user_id</title>
<path fill="none" stroke="#f77f00" stroke-width="1.8" d="M110.7,-284.22C151.21,-275.83 204.34,-264.84 243.58,-256.72"/>
<polygon fill="#f77f00" stroke="#f77f00" stroke-width="1.8" points="110.67,-284.22 99.97,-281.84 105.19,-285.36 101.47,-286.13 101.47,-286.13 101.47,-286.13 105.19,-285.36 101.79,-290.65 110.67,-284.22"/>
<polygon fill="#f77f00" stroke="#f77f00" stroke-width="1.8" points="246.3,-251.05 248.33,-260.85 246.37,-261.25 244.34,-251.46 246.3,-251.05"/>
<polyline fill="none" stroke="#f77f00" stroke-width="1.8" points="248.29,-255.75 243.4,-256.76"/>
<text xml:space="preserve" text-anchor="middle" x="174.25" y="-275.02" font-family="Helvetica Neue" font-size="14.00"> </text>
<text xml:space="preserve" text-anchor="middle" x="207.89" y="-257.17" font-family="Helvetica Neue" font-size="14.00">BelongsTo</text>
<text xml:space="preserve" text-anchor="middle" x="207.89" y="-239.92" font-family="Helvetica Neue" font-size="14.00">users</text>
</g>
<!-- appmodelsbudaya -->
<g id="node3" class="node">
<title>appmodelsbudaya</title>
<polygon fill="none" stroke="black" points="348.5,-119.57 248.5,-119.57 248.5,-19.57 348.5,-19.57 348.5,-119.57"/>
<polygon fill="#d3d3d3" stroke="none" points="248.5,-80.32 248.5,-119.57 348.5,-119.57 348.5,-80.32 248.5,-80.32"/>
<polygon fill="none" stroke="black" points="248.5,-80.32 248.5,-119.57 348.5,-119.57 348.5,-80.32 248.5,-80.32"/>
<text xml:space="preserve" text-anchor="start" x="276" y="-95.27" font-family="Helvetica Neue" font-size="14.00" fill="#333333">Budaya</text>
</g>
<!-- appmodelsartikel&#45;&gt;appmodelsbudaya -->
<g id="edge2" class="edge">
<title>appmodelsartikel:budaya_id&#45;&gt;appmodelsbudaya:budaya_id</title>
<path fill="none" stroke="#f77f00" stroke-width="1.8" d="M108.04,-244.04C149.33,-206.02 204.72,-155.01 244.94,-117.97"/>
<polygon fill="#f77f00" stroke="#f77f00" stroke-width="1.8" points="108.09,-243.99 97.69,-247.46 103.97,-247.79 101.18,-250.36 101.18,-250.36 101.18,-250.36 103.97,-247.79 103.78,-254.08 108.09,-243.99"/>
<polygon fill="#f77f00" stroke="#f77f00" stroke-width="1.8" points="244.17,-111.88 250.95,-119.24 249.48,-120.59 242.7,-113.23 244.17,-111.88"/>
<polyline fill="none" stroke="#f77f00" stroke-width="1.8" points="248.29,-114.88 244.62,-118.27"/>
<text xml:space="preserve" text-anchor="middle" x="174.25" y="-187.02" font-family="Helvetica Neue" font-size="14.00"> </text>
<text xml:space="preserve" text-anchor="middle" x="207.24" y="-167.71" font-family="Helvetica Neue" font-size="14.00">BelongsTo</text>
<text xml:space="preserve" text-anchor="middle" x="207.24" y="-150.46" font-family="Helvetica Neue" font-size="14.00">budayas</text>
</g>
<!-- appmodelscomment -->
<g id="node4" class="node">
<title>appmodelscomment</title>
<polygon fill="none" stroke="black" points="597,-460.57 497,-460.57 497,-360.57 597,-360.57 597,-460.57"/>
<polygon fill="#d3d3d3" stroke="none" points="497,-421.32 497,-460.57 597,-460.57 597,-421.32 497,-421.32"/>
<polygon fill="none" stroke="black" points="497,-421.32 497,-460.57 597,-460.57 597,-421.32 497,-421.32"/>
<text xml:space="preserve" text-anchor="start" x="517.38" y="-436.27" font-family="Helvetica Neue" font-size="14.00" fill="#333333">Comment</text>
</g>
<!-- appmodelsartikel&#45;&gt;appmodelscomment -->
<g id="edge3" class="edge">
<title>appmodelsartikel:artikel_id&#45;&gt;appmodelscomment:artikel_id</title>
<path fill="none" stroke="#fcbf49" stroke-width="1.8" d="M81.85,-347.04C117.7,-405.71 172,-494.57 172,-494.57 172,-494.57 425,-494.57 425,-494.57 425,-494.57 456.99,-472.36 488.07,-450.78"/>
<polygon fill="#fcbf49" stroke="#fcbf49" stroke-width="1.8" points="488.08,-450.78 498.86,-448.77 492.68,-447.59 495.8,-445.42 495.8,-445.42 495.8,-445.42 492.68,-447.59 493.72,-441.38 488.08,-450.78"/>
<text xml:space="preserve" text-anchor="middle" x="298.5" y="-498.52" font-family="Helvetica Neue" font-size="14.00"> </text>
<text xml:space="preserve" text-anchor="middle" x="218.57" y="-481.27" font-family="Helvetica Neue" font-size="14.00">HasMany</text>
<text xml:space="preserve" text-anchor="middle" x="218.57" y="-464.02" font-family="Helvetica Neue" font-size="14.00">comments</text>
</g>
<!-- appmodelsuser&#45;&gt;appmodelsartikel -->
<g id="edge13" class="edge">
<title>appmodelsuser:user_id&#45;&gt;appmodelsartikel:user_id</title>
<path fill="none" stroke="#fcbf49" stroke-width="1.8" d="M248.28,-244.25C214.79,-243.35 176.5,-242.32 176.5,-242.32 176.5,-242.32 172,-242.32 172,-242.32 172,-242.32 140.56,-256.42 109.73,-270.24"/>
<polygon fill="#fcbf49" stroke="#fcbf49" stroke-width="1.8" points="109.89,-270.16 98.92,-270.15 104.78,-272.46 101.31,-274.01 101.31,-274.01 101.31,-274.01 104.78,-272.46 102.61,-278.36 109.89,-270.16"/>
<text xml:space="preserve" text-anchor="middle" x="174.25" y="-246.27" font-family="Helvetica Neue" font-size="14.00"> </text>
<text xml:space="preserve" text-anchor="middle" x="148.28" y="-229.02" font-family="Helvetica Neue" font-size="14.00">HasMany</text>
<text xml:space="preserve" text-anchor="middle" x="148.28" y="-211.77" font-family="Helvetica Neue" font-size="14.00">artikels</text>
</g>
<!-- appmodelsuser&#45;&gt;appmodelscomment -->
<g id="edge14" class="edge">
<title>appmodelsuser:user_id&#45;&gt;appmodelscomment:user_id</title>
<path fill="none" stroke="#fcbf49" stroke-width="1.8" d="M348.79,-278.56C388.93,-305.43 445.67,-343.41 487.99,-371.74"/>
<polygon fill="#fcbf49" stroke="#fcbf49" stroke-width="1.8" points="487.98,-371.73 493.79,-381.04 492.64,-374.85 495.79,-376.96 495.79,-376.96 495.79,-376.96 492.64,-374.85 498.8,-373.56 487.98,-371.73"/>
<text xml:space="preserve" text-anchor="middle" x="422.75" y="-332.02" font-family="Helvetica Neue" font-size="14.00"> </text>
<text xml:space="preserve" text-anchor="middle" x="386.52" y="-311.85" font-family="Helvetica Neue" font-size="14.00">HasMany</text>
<text xml:space="preserve" text-anchor="middle" x="386.52" y="-294.6" font-family="Helvetica Neue" font-size="14.00">comments</text>
</g>
<!-- appmodelsbudaya&#45;&gt;appmodelsartikel -->
<g id="edge4" class="edge">
<title>appmodelsbudaya:budaya_id&#45;&gt;appmodelsartikel:budaya_id</title>
<path fill="none" stroke="#fcbf49" stroke-width="1.8" d="M248.26,-100.07C213.1,-121.86 172,-147.32 172,-147.32 172,-147.32 132.26,-196.34 98.32,-238.2"/>
<polygon fill="#fcbf49" stroke="#fcbf49" stroke-width="1.8" points="98.3,-238.22 88.51,-243.15 94.78,-242.57 92.39,-245.52 92.39,-245.52 92.39,-245.52 94.78,-242.57 95.5,-248.82 98.3,-238.22"/>
<text xml:space="preserve" text-anchor="middle" x="174.25" y="-151.27" font-family="Helvetica Neue" font-size="14.00"> </text>
<text xml:space="preserve" text-anchor="middle" x="135.66" y="-144.61" font-family="Helvetica Neue" font-size="14.00">HasMany</text>
<text xml:space="preserve" text-anchor="middle" x="135.66" y="-127.36" font-family="Helvetica Neue" font-size="14.00">artikels</text>
</g>
<!-- appmodelspustaka -->
<g id="node5" class="node">
<title>appmodelspustaka</title>
<polygon fill="none" stroke="black" points="597,-119.57 497,-119.57 497,-19.57 597,-19.57 597,-119.57"/>
<polygon fill="#d3d3d3" stroke="none" points="497,-80.32 497,-119.57 597,-119.57 597,-80.32 497,-80.32"/>
<polygon fill="none" stroke="black" points="497,-80.32 497,-119.57 597,-119.57 597,-80.32 497,-80.32"/>
<text xml:space="preserve" text-anchor="start" x="523.38" y="-95.27" font-family="Helvetica Neue" font-size="14.00" fill="#333333">Pustaka</text>
</g>
<!-- appmodelsbudaya&#45;&gt;appmodelspustaka -->
<g id="edge5" class="edge">
<title>appmodelsbudaya:budaya_id&#45;&gt;appmodelspustaka:budaya_id</title>
<path fill="none" stroke="#fcbf49" stroke-width="1.8" d="M348.79,-69.57C388.34,-69.57 444.01,-69.57 486.13,-69.57"/>
<polygon fill="#fcbf49" stroke="#fcbf49" stroke-width="1.8" points="486.19,-69.57 496.19,-74.07 491.79,-69.57 495.59,-69.57 495.59,-69.57 495.59,-69.57 491.79,-69.57 496.19,-65.07 486.19,-69.57"/>
<text xml:space="preserve" text-anchor="middle" x="422.75" y="-73.52" font-family="Helvetica Neue" font-size="14.00"> </text>
<text xml:space="preserve" text-anchor="middle" x="389.71" y="-56.27" font-family="Helvetica Neue" font-size="14.00">HasMany</text>
<text xml:space="preserve" text-anchor="middle" x="389.71" y="-39.02" font-family="Helvetica Neue" font-size="14.00">pustakas</text>
</g>
<!-- appmodelscomment&#45;&gt;appmodelsartikel -->
<g id="edge7" class="edge">
<title>appmodelscomment:artikel_id&#45;&gt;appmodelsartikel:artikel_id</title>
<path fill="none" stroke="#f77f00" stroke-width="1.8" d="M486.33,-396.82C389.21,-374.46 198.46,-330.53 105.08,-309.02"/>
<polygon fill="#f77f00" stroke="#f77f00" stroke-width="1.8" points="486.23,-396.8 494.96,-403.43 491.69,-398.06 495.39,-398.91 495.39,-398.91 495.39,-398.91 491.69,-398.06 496.98,-394.66 486.23,-396.8"/>
<polygon fill="#f77f00" stroke="#f77f00" stroke-width="1.8" points="100.12,-313.01 102.37,-303.27 104.32,-303.72 102.07,-313.46 100.12,-313.01"/>
<polyline fill="none" stroke="#f77f00" stroke-width="1.8" points="100.27,-307.92 105.14,-309.04"/>
<text xml:space="preserve" text-anchor="middle" x="298.5" y="-368.85" font-family="Helvetica Neue" font-size="14.00"> </text>
<text xml:space="preserve" text-anchor="middle" x="264.96" y="-339.62" font-family="Helvetica Neue" font-size="14.00">BelongsTo</text>
<text xml:space="preserve" text-anchor="middle" x="264.96" y="-322.37" font-family="Helvetica Neue" font-size="14.00">artikel</text>
</g>
<!-- appmodelscomment&#45;&gt;appmodelsuser -->
<g id="edge6" class="edge">
<title>appmodelscomment:user_id&#45;&gt;appmodelsuser:user_id</title>
<path fill="none" stroke="#f77f00" stroke-width="1.8" d="M498.03,-352.19C464.24,-311.07 425,-263.32 425,-263.32 425,-263.32 387.36,-257.99 353.3,-253.18"/>
<polygon fill="#f77f00" stroke="#f77f00" stroke-width="1.8" points="497.97,-352.11 500.84,-362.7 501.52,-356.44 503.93,-359.37 503.93,-359.37 503.93,-359.37 501.52,-356.44 507.79,-356.98 497.97,-352.11"/>
<polygon fill="#f77f00" stroke="#f77f00" stroke-width="1.8" points="349.03,-257.62 350.43,-247.72 352.41,-248 351.01,-257.9 349.03,-257.62"/>
<polyline fill="none" stroke="#f77f00" stroke-width="1.8" points="348.74,-252.53 353.69,-253.23"/>
<text xml:space="preserve" text-anchor="middle" x="422.75" y="-267.27" font-family="Helvetica Neue" font-size="14.00"> </text>
<text xml:space="preserve" text-anchor="middle" x="469.28" y="-266.48" font-family="Helvetica Neue" font-size="14.00">BelongsTo</text>
<text xml:space="preserve" text-anchor="middle" x="469.28" y="-249.23" font-family="Helvetica Neue" font-size="14.00">user</text>
</g>
<!-- appmodelspustaka&#45;&gt;appmodelsbudaya -->
<g id="edge12" class="edge">
<title>appmodelspustaka:budaya_id&#45;&gt;appmodelsbudaya:budaya_id</title>
<path fill="none" stroke="#f77f00" stroke-width="1.8" d="M486.47,-52.23C455.9,-43.32 425,-34.32 425,-34.32 425,-34.32 420.5,-34.32 420.5,-34.32 420.5,-34.32 385.72,-44.45 353.45,-53.85"/>
<polygon fill="#f77f00" stroke="#f77f00" stroke-width="1.8" points="486.61,-52.26 494.95,-59.38 491.98,-53.83 495.63,-54.89 495.63,-54.89 495.63,-54.89 491.98,-53.83 497.47,-50.74 486.61,-52.26"/>
<polygon fill="#f77f00" stroke="#f77f00" stroke-width="1.8" points="351.07,-59.75 348.28,-50.15 350.2,-49.59 352.99,-59.19 351.07,-59.75"/>
<polyline fill="none" stroke="#f77f00" stroke-width="1.8" points="348.72,-55.23 353.52,-53.83"/>
<text xml:space="preserve" text-anchor="middle" x="422.75" y="-38.27" font-family="Helvetica Neue" font-size="14.00"> </text>
<text xml:space="preserve" text-anchor="middle" x="389.12" y="-21.2" font-family="Helvetica Neue" font-size="14.00">BelongsTo</text>
<text xml:space="preserve" text-anchor="middle" x="389.12" y="-3.95" font-family="Helvetica Neue" font-size="14.00">budayas</text>
</g>
<!-- appmodelsevent -->
<g id="node6" class="node">
<title>appmodelsevent</title>
<polygon fill="none" stroke="black" points="100,-858.57 0,-858.57 0,-758.57 100,-758.57 100,-858.57"/>
<polygon fill="#d3d3d3" stroke="none" points="0,-819.32 0,-858.57 100,-858.57 100,-819.32 0,-819.32"/>
<polygon fill="none" stroke="black" points="0,-819.32 0,-858.57 100,-858.57 100,-819.32 0,-819.32"/>
<text xml:space="preserve" text-anchor="start" x="33.12" y="-834.27" font-family="Helvetica Neue" font-size="14.00" fill="#333333">Event</text>
</g>
<!-- appmodelslokasi -->
<g id="node7" class="node">
<title>appmodelslokasi</title>
<polygon fill="none" stroke="black" points="348.5,-846.57 248.5,-846.57 248.5,-746.57 348.5,-746.57 348.5,-846.57"/>
<polygon fill="#d3d3d3" stroke="none" points="248.5,-807.32 248.5,-846.57 348.5,-846.57 348.5,-807.32 248.5,-807.32"/>
<polygon fill="none" stroke="black" points="248.5,-807.32 248.5,-846.57 348.5,-846.57 348.5,-807.32 248.5,-807.32"/>
<text xml:space="preserve" text-anchor="start" x="279.75" y="-822.27" font-family="Helvetica Neue" font-size="14.00" fill="#333333">Lokasi</text>
</g>
<!-- appmodelsevent&#45;&gt;appmodelslokasi -->
<g id="edge8" class="edge">
<title>appmodelsevent:lokasi_id&#45;&gt;appmodelslokasi:lokasi_id</title>
<path fill="none" stroke="#f77f00" stroke-width="1.8" d="M110.97,-805.65C151.45,-803.68 204.44,-801.1 243.59,-799.19"/>
<polygon fill="#f77f00" stroke="#f77f00" stroke-width="1.8" points="110.88,-805.65 100.67,-801.64 105.28,-805.93 101.49,-806.11 101.49,-806.11 101.49,-806.11 105.28,-805.93 101.11,-810.63 110.88,-805.65"/>
<polygon fill="#f77f00" stroke="#f77f00" stroke-width="1.8" points="247.05,-794.02 247.54,-804.01 245.54,-804.1 245.06,-794.11 247.05,-794.02"/>
<polyline fill="none" stroke="#f77f00" stroke-width="1.8" points="248.29,-798.96 243.3,-799.21"/>
<text xml:space="preserve" text-anchor="middle" x="174.25" y="-806.52" font-family="Helvetica Neue" font-size="14.00"> </text>
<text xml:space="preserve" text-anchor="middle" x="208.03" y="-789.12" font-family="Helvetica Neue" font-size="14.00">BelongsTo</text>
<text xml:space="preserve" text-anchor="middle" x="208.03" y="-771.87" font-family="Helvetica Neue" font-size="14.00">lokasis</text>
</g>
<!-- appmodelslokasi&#45;&gt;appmodelsevent -->
<g id="edge9" class="edge">
<title>appmodelslokasi:lokasi_id&#45;&gt;appmodelsevent:lokasi_id</title>
<path fill="none" stroke="#fcbf49" stroke-width="1.8" d="M248.28,-784.67C214.79,-776.57 176.5,-767.32 176.5,-767.32 176.5,-767.32 172,-767.32 172,-767.32 172,-767.32 140.83,-777.94 110.13,-788.41"/>
<polygon fill="#fcbf49" stroke="#fcbf49" stroke-width="1.8" points="110.25,-788.37 99.33,-787.34 104.95,-790.18 101.36,-791.4 101.36,-791.4 101.36,-791.4 104.95,-790.18 102.24,-795.85 110.25,-788.37"/>
<text xml:space="preserve" text-anchor="middle" x="174.25" y="-771.27" font-family="Helvetica Neue" font-size="14.00"> </text>
<text xml:space="preserve" text-anchor="middle" x="150.69" y="-754.49" font-family="Helvetica Neue" font-size="14.00">HasMany</text>
<text xml:space="preserve" text-anchor="middle" x="150.69" y="-737.24" font-family="Helvetica Neue" font-size="14.00">events</text>
</g>
<!-- appmodelsmakanan -->
<g id="node8" class="node">
<title>appmodelsmakanan</title>
<polygon fill="none" stroke="black" points="597,-834.57 497,-834.57 497,-734.57 597,-734.57 597,-834.57"/>
<polygon fill="#d3d3d3" stroke="none" points="497,-795.32 497,-834.57 597,-834.57 597,-795.32 497,-795.32"/>
<polygon fill="none" stroke="black" points="497,-795.32 497,-834.57 597,-834.57 597,-795.32 497,-795.32"/>
<text xml:space="preserve" text-anchor="start" x="519.62" y="-810.27" font-family="Helvetica Neue" font-size="14.00" fill="#333333">Makanan</text>
</g>
<!-- appmodelslokasi&#45;&gt;appmodelsmakanan -->
<g id="edge10" class="edge">
<title>appmodelslokasi:lokasi_id&#45;&gt;appmodelsmakanan:lokasi_id</title>
<path fill="none" stroke="#fcbf49" stroke-width="1.8" d="M348.79,-794.17C388.34,-792.24 444.01,-789.53 486.13,-787.48"/>
<polygon fill="#fcbf49" stroke="#fcbf49" stroke-width="1.8" points="486.21,-787.48 496.41,-791.49 491.8,-787.21 495.59,-787.02 495.59,-787.02 495.59,-787.02 491.8,-787.21 495.97,-782.5 486.21,-787.48"/>
<text xml:space="preserve" text-anchor="middle" x="422.75" y="-794.52" font-family="Helvetica Neue" font-size="14.00"> </text>
<text xml:space="preserve" text-anchor="middle" x="386.33" y="-777.53" font-family="Helvetica Neue" font-size="14.00">HasMany</text>
<text xml:space="preserve" text-anchor="middle" x="386.33" y="-760.28" font-family="Helvetica Neue" font-size="14.00">makanans</text>
</g>
<!-- appmodelsmakanan&#45;&gt;appmodelslokasi -->
<g id="edge11" class="edge">
<title>appmodelsmakanan:lokasi_id&#45;&gt;appmodelslokasi:lokasi_id</title>
<path fill="none" stroke="#f77f00" stroke-width="1.8" d="M486.47,-770.18C455.9,-762.79 425,-755.32 425,-755.32 425,-755.32 420.5,-755.32 420.5,-755.32 420.5,-755.32 385.43,-767.27 353.06,-778.31"/>
<polygon fill="#f77f00" stroke="#f77f00" stroke-width="1.8" points="486.48,-770.18 495.14,-776.9 491.92,-771.5 495.61,-772.39 495.61,-772.39 495.61,-772.39 491.92,-771.5 497.26,-768.16 486.48,-770.18"/>
<polygon fill="#f77f00" stroke="#f77f00" stroke-width="1.8" points="351.28,-784.2 348.05,-774.73 349.94,-774.09 353.17,-783.55 351.28,-784.2"/>
<polyline fill="none" stroke="#f77f00" stroke-width="1.8" points="348.72,-779.79 353.45,-778.18"/>
<text xml:space="preserve" text-anchor="middle" x="422.75" y="-759.27" font-family="Helvetica Neue" font-size="14.00"> </text>
<text xml:space="preserve" text-anchor="middle" x="388.09" y="-742.58" font-family="Helvetica Neue" font-size="14.00">BelongsTo</text>
<text xml:space="preserve" text-anchor="middle" x="388.09" y="-725.33" font-family="Helvetica Neue" font-size="14.00">lokasis</text>
</g>
</g>
</svg>
