<?xml version="1.0" encoding="UTF-8" standalone="no"?>
<!DOCTYPE svg PUBLIC "-//W3C//DTD SVG 1.1//EN"
 "http://www.w3.org/Graphics/SVG/1.1/DTD/svg11.dtd">
<!-- Generated by graphviz version 13.1.2 (20250808.2320)
 -->
<!-- Title: G Pages: 1 -->
<svg width="899pt" height="1754pt"
 viewBox="0.00 0.00 899.00 1754.00" xmlns="http://www.w3.org/2000/svg" xmlns:xlink="http://www.w3.org/1999/xlink">
<g id="graph0" class="graph" transform="scale(1 1) rotate(0) translate(36 1717.88)">
<title>G</title>
<polygon fill="#f7f7f7" stroke="none" points="-36,36 -36,-1717.88 863.25,-1717.88 863.25,36 -36,36"/>
<!-- appmodelsartikel -->
<g id="node1" class="node">
<title>appmodelsartikel</title>
<polygon fill="none" stroke="black" points="170.5,-853.12 0,-853.12 0,-421.38 170.5,-421.38 170.5,-853.12"/>
<polygon fill="#d3d3d3" stroke="none" points="0,-813.88 0,-853.12 170.5,-853.12 170.5,-813.88 0,-813.88"/>
<polygon fill="none" stroke="black" points="0,-813.88 0,-853.12 170.5,-853.12 170.5,-813.88 0,-813.88"/>
<text xml:space="preserve" text-anchor="start" x="66.12" y="-828.83" font-family="Helvetica Neue" font-size="14.00" fill="#333333">Artikel</text>
<polygon fill="#ffffff" stroke="none" points="0,-774.62 0,-813.88 170.5,-813.88 170.5,-774.62 0,-774.62"/>
<polygon fill="none" stroke="black" points="0,-774.62 0,-813.88 170.5,-813.88 170.5,-774.62 0,-774.62"/>
<text xml:space="preserve" text-anchor="start" x="11" y="-789.58" font-family="Helvetica Neue" font-size="14.00" fill="#333333">artikel_id (int)</text>
<polygon fill="#ffffff" stroke="none" points="0,-735.38 0,-774.62 170.5,-774.62 170.5,-735.38 0,-735.38"/>
<polygon fill="none" stroke="black" points="0,-735.38 0,-774.62 170.5,-774.62 170.5,-735.38 0,-735.38"/>
<text xml:space="preserve" text-anchor="start" x="11" y="-750.33" font-family="Helvetica Neue" font-size="14.00" fill="#333333">title (varchar)</text>
<polygon fill="#ffffff" stroke="none" points="0,-696.12 0,-735.38 170.5,-735.38 170.5,-696.12 0,-696.12"/>
<polygon fill="none" stroke="black" points="0,-696.12 0,-735.38 170.5,-735.38 170.5,-696.12 0,-696.12"/>
<text xml:space="preserve" text-anchor="start" x="11" y="-711.08" font-family="Helvetica Neue" font-size="14.00" fill="#333333">content (text)</text>
<polygon fill="#ffffff" stroke="none" points="0,-656.88 0,-696.12 170.5,-696.12 170.5,-656.88 0,-656.88"/>
<polygon fill="none" stroke="black" points="0,-656.88 0,-696.12 170.5,-696.12 170.5,-656.88 0,-656.88"/>
<text xml:space="preserve" text-anchor="start" x="11" y="-671.83" font-family="Helvetica Neue" font-size="14.00" fill="#333333">penulis (varchar)</text>
<polygon fill="#ffffff" stroke="none" points="0,-617.62 0,-656.88 170.5,-656.88 170.5,-617.62 0,-617.62"/>
<polygon fill="none" stroke="black" points="0,-617.62 0,-656.88 170.5,-656.88 170.5,-617.62 0,-617.62"/>
<text xml:space="preserve" text-anchor="start" x="11" y="-632.58" font-family="Helvetica Neue" font-size="14.00" fill="#333333">topic (varchar)</text>
<polygon fill="#ffffff" stroke="none" points="0,-578.38 0,-617.62 170.5,-617.62 170.5,-578.38 0,-578.38"/>
<polygon fill="none" stroke="black" points="0,-578.38 0,-617.62 170.5,-617.62 170.5,-578.38 0,-578.38"/>
<text xml:space="preserve" text-anchor="start" x="11" y="-593.33" font-family="Helvetica Neue" font-size="14.00" fill="#333333">user_id (bigint)</text>
<polygon fill="#ffffff" stroke="none" points="0,-539.12 0,-578.38 170.5,-578.38 170.5,-539.12 0,-539.12"/>
<polygon fill="none" stroke="black" points="0,-539.12 0,-578.38 170.5,-578.38 170.5,-539.12 0,-539.12"/>
<text xml:space="preserve" text-anchor="start" x="11" y="-554.08" font-family="Helvetica Neue" font-size="14.00" fill="#333333">budaya_id (bigint)</text>
<polygon fill="#ffffff" stroke="none" points="0,-499.88 0,-539.12 170.5,-539.12 170.5,-499.88 0,-499.88"/>
<polygon fill="none" stroke="black" points="0,-499.88 0,-539.12 170.5,-539.12 170.5,-499.88 0,-499.88"/>
<text xml:space="preserve" text-anchor="start" x="11" y="-514.83" font-family="Helvetica Neue" font-size="14.00" fill="#333333">gambar (varchar)</text>
<polygon fill="#ffffff" stroke="none" points="0,-460.62 0,-499.88 170.5,-499.88 170.5,-460.62 0,-460.62"/>
<polygon fill="none" stroke="black" points="0,-460.62 0,-499.88 170.5,-499.88 170.5,-460.62 0,-460.62"/>
<text xml:space="preserve" text-anchor="start" x="11" y="-475.57" font-family="Helvetica Neue" font-size="14.00" fill="#333333">created_at (timestamp)</text>
<polygon fill="#ffffff" stroke="none" points="0,-421.38 0,-460.62 170.5,-460.62 170.5,-421.38 0,-421.38"/>
<polygon fill="none" stroke="black" points="0,-421.38 0,-460.62 170.5,-460.62 170.5,-421.38 0,-421.38"/>
<text xml:space="preserve" text-anchor="start" x="11" y="-436.32" font-family="Helvetica Neue" font-size="14.00" fill="#333333">updated_at (timestamp)</text>
</g>
<!-- appmodelsuser -->
<g id="node2" class="node">
<title>appmodelsuser</title>
<polygon fill="none" stroke="black" points="508.25,-1018.5 319,-1018.5 319,-626 508.25,-626 508.25,-1018.5"/>
<polygon fill="#d3d3d3" stroke="none" points="319,-979.25 319,-1018.5 508.25,-1018.5 508.25,-979.25 319,-979.25"/>
<polygon fill="none" stroke="black" points="319,-979.25 319,-1018.5 508.25,-1018.5 508.25,-979.25 319,-979.25"/>
<text xml:space="preserve" text-anchor="start" x="399.75" y="-994.2" font-family="Helvetica Neue" font-size="14.00" fill="#333333">User</text>
<polygon fill="#ffffff" stroke="none" points="319,-940 319,-979.25 508.25,-979.25 508.25,-940 319,-940"/>
<polygon fill="none" stroke="black" points="319,-940 319,-979.25 508.25,-979.25 508.25,-940 319,-940"/>
<text xml:space="preserve" text-anchor="start" x="330" y="-954.95" font-family="Helvetica Neue" font-size="14.00" fill="#333333">user_id (int)</text>
<polygon fill="#ffffff" stroke="none" points="319,-900.75 319,-940 508.25,-940 508.25,-900.75 319,-900.75"/>
<polygon fill="none" stroke="black" points="319,-900.75 319,-940 508.25,-940 508.25,-900.75 319,-900.75"/>
<text xml:space="preserve" text-anchor="start" x="330" y="-915.7" font-family="Helvetica Neue" font-size="14.00" fill="#333333">name (varchar)</text>
<polygon fill="#ffffff" stroke="none" points="319,-861.5 319,-900.75 508.25,-900.75 508.25,-861.5 319,-861.5"/>
<polygon fill="none" stroke="black" points="319,-861.5 319,-900.75 508.25,-900.75 508.25,-861.5 319,-861.5"/>
<text xml:space="preserve" text-anchor="start" x="330" y="-876.45" font-family="Helvetica Neue" font-size="14.00" fill="#333333">email (varchar)</text>
<polygon fill="#ffffff" stroke="none" points="319,-822.25 319,-861.5 508.25,-861.5 508.25,-822.25 319,-822.25"/>
<polygon fill="none" stroke="black" points="319,-822.25 319,-861.5 508.25,-861.5 508.25,-822.25 319,-822.25"/>
<text xml:space="preserve" text-anchor="start" x="330" y="-837.2" font-family="Helvetica Neue" font-size="14.00" fill="#333333">role (enum)</text>
<polygon fill="#ffffff" stroke="none" points="319,-783 319,-822.25 508.25,-822.25 508.25,-783 319,-783"/>
<polygon fill="none" stroke="black" points="319,-783 319,-822.25 508.25,-822.25 508.25,-783 319,-783"/>
<text xml:space="preserve" text-anchor="start" x="330" y="-797.95" font-family="Helvetica Neue" font-size="14.00" fill="#333333">foto (varchar)</text>
<polygon fill="#ffffff" stroke="none" points="319,-743.75 319,-783 508.25,-783 508.25,-743.75 319,-743.75"/>
<polygon fill="none" stroke="black" points="319,-743.75 319,-783 508.25,-783 508.25,-743.75 319,-743.75"/>
<text xml:space="preserve" text-anchor="start" x="330" y="-758.7" font-family="Helvetica Neue" font-size="14.00" fill="#333333">password (varchar)</text>
<polygon fill="#ffffff" stroke="none" points="319,-704.5 319,-743.75 508.25,-743.75 508.25,-704.5 319,-704.5"/>
<polygon fill="none" stroke="black" points="319,-704.5 319,-743.75 508.25,-743.75 508.25,-704.5 319,-704.5"/>
<text xml:space="preserve" text-anchor="start" x="330" y="-719.45" font-family="Helvetica Neue" font-size="14.00" fill="#333333">remember_token (varchar)</text>
<polygon fill="#ffffff" stroke="none" points="319,-665.25 319,-704.5 508.25,-704.5 508.25,-665.25 319,-665.25"/>
<polygon fill="none" stroke="black" points="319,-665.25 319,-704.5 508.25,-704.5 508.25,-665.25 319,-665.25"/>
<text xml:space="preserve" text-anchor="start" x="330" y="-680.2" font-family="Helvetica Neue" font-size="14.00" fill="#333333">created_at (timestamp)</text>
<polygon fill="#ffffff" stroke="none" points="319,-626 319,-665.25 508.25,-665.25 508.25,-626 319,-626"/>
<polygon fill="none" stroke="black" points="319,-626 319,-665.25 508.25,-665.25 508.25,-626 319,-626"/>
<text xml:space="preserve" text-anchor="start" x="330" y="-640.95" font-family="Helvetica Neue" font-size="14.00" fill="#333333">updated_at (timestamp)</text>
</g>
<!-- appmodelsartikel&#45;&gt;appmodelsuser -->
<g id="edge1" class="edge">
<title>appmodelsartikel:user_id&#45;&gt;appmodelsuser:user_id</title>
<path fill="none" stroke="#f77f00" stroke-width="1.8" d="M174.47,-607.67C196.43,-661.14 302.48,-919.39 317.28,-955.44"/>
<polygon fill="#f77f00" stroke="#f77f00" stroke-width="1.8" points="174.53,-607.81 174.89,-596.85 172.4,-602.63 170.96,-599.11 170.96,-599.11 170.96,-599.11 172.4,-602.63 166.57,-600.27 174.53,-607.81"/>
<polygon fill="#f77f00" stroke="#f77f00" stroke-width="1.8" points="323.25,-956.8 313.99,-960.6 313.24,-958.75 322.49,-954.95 323.25,-956.8"/>
<polyline fill="none" stroke="#f77f00" stroke-width="1.8" points="319,-959.62 317.1,-955"/>
<text xml:space="preserve" text-anchor="middle" x="244.75" y="-782.76" font-family="Helvetica Neue" font-size="14.00"> </text>
<text xml:space="preserve" text-anchor="middle" x="276.63" y="-802.76" font-family="Helvetica Neue" font-size="14.00">BelongsTo</text>
<text xml:space="preserve" text-anchor="middle" x="276.63" y="-785.51" font-family="Helvetica Neue" font-size="14.00">users</text>
</g>
<!-- appmodelsbudaya -->
<g id="node3" class="node">
<title>appmodelsbudaya</title>
<polygon fill="none" stroke="black" points="498.88,-392.5 328.38,-392.5 328.38,0 498.88,0 498.88,-392.5"/>
<polygon fill="#d3d3d3" stroke="none" points="328.38,-353.25 328.38,-392.5 498.88,-392.5 498.88,-353.25 328.38,-353.25"/>
<polygon fill="none" stroke="black" points="328.38,-353.25 328.38,-392.5 498.88,-392.5 498.88,-353.25 328.38,-353.25"/>
<text xml:space="preserve" text-anchor="start" x="391.12" y="-368.2" font-family="Helvetica Neue" font-size="14.00" fill="#333333">Budaya</text>
<polygon fill="#ffffff" stroke="none" points="328.38,-314 328.38,-353.25 498.88,-353.25 498.88,-314 328.38,-314"/>
<polygon fill="none" stroke="black" points="328.38,-314 328.38,-353.25 498.88,-353.25 498.88,-314 328.38,-314"/>
<text xml:space="preserve" text-anchor="start" x="339.38" y="-328.95" font-family="Helvetica Neue" font-size="14.00" fill="#333333">budaya_id (int)</text>
<polygon fill="#ffffff" stroke="none" points="328.38,-274.75 328.38,-314 498.88,-314 498.88,-274.75 328.38,-274.75"/>
<polygon fill="none" stroke="black" points="328.38,-274.75 328.38,-314 498.88,-314 498.88,-274.75 328.38,-274.75"/>
<text xml:space="preserve" text-anchor="start" x="339.38" y="-289.7" font-family="Helvetica Neue" font-size="14.00" fill="#333333">user_id (bigint)</text>
<polygon fill="#ffffff" stroke="none" points="328.38,-235.5 328.38,-274.75 498.88,-274.75 498.88,-235.5 328.38,-235.5"/>
<polygon fill="none" stroke="black" points="328.38,-235.5 328.38,-274.75 498.88,-274.75 498.88,-235.5 328.38,-235.5"/>
<text xml:space="preserve" text-anchor="start" x="339.38" y="-250.45" font-family="Helvetica Neue" font-size="14.00" fill="#333333">name (varchar)</text>
<polygon fill="#ffffff" stroke="none" points="328.38,-196.25 328.38,-235.5 498.88,-235.5 498.88,-196.25 328.38,-196.25"/>
<polygon fill="none" stroke="black" points="328.38,-196.25 328.38,-235.5 498.88,-235.5 498.88,-196.25 328.38,-196.25"/>
<text xml:space="preserve" text-anchor="start" x="339.38" y="-211.2" font-family="Helvetica Neue" font-size="14.00" fill="#333333">jenis (varchar)</text>
<polygon fill="#ffffff" stroke="none" points="328.38,-157 328.38,-196.25 498.88,-196.25 498.88,-157 328.38,-157"/>
<polygon fill="none" stroke="black" points="328.38,-157 328.38,-196.25 498.88,-196.25 498.88,-157 328.38,-157"/>
<text xml:space="preserve" text-anchor="start" x="339.38" y="-171.95" font-family="Helvetica Neue" font-size="14.00" fill="#333333">deskripsi (text)</text>
<polygon fill="#ffffff" stroke="none" points="328.38,-117.75 328.38,-157 498.88,-157 498.88,-117.75 328.38,-117.75"/>
<polygon fill="none" stroke="black" points="328.38,-117.75 328.38,-157 498.88,-157 498.88,-117.75 328.38,-117.75"/>
<text xml:space="preserve" text-anchor="start" x="339.38" y="-132.7" font-family="Helvetica Neue" font-size="14.00" fill="#333333">asal_daerah (varchar)</text>
<polygon fill="#ffffff" stroke="none" points="328.38,-78.5 328.38,-117.75 498.88,-117.75 498.88,-78.5 328.38,-78.5"/>
<polygon fill="none" stroke="black" points="328.38,-78.5 328.38,-117.75 498.88,-117.75 498.88,-78.5 328.38,-78.5"/>
<text xml:space="preserve" text-anchor="start" x="339.38" y="-93.45" font-family="Helvetica Neue" font-size="14.00" fill="#333333">status (enum)</text>
<polygon fill="#ffffff" stroke="none" points="328.38,-39.25 328.38,-78.5 498.88,-78.5 498.88,-39.25 328.38,-39.25"/>
<polygon fill="none" stroke="black" points="328.38,-39.25 328.38,-78.5 498.88,-78.5 498.88,-39.25 328.38,-39.25"/>
<text xml:space="preserve" text-anchor="start" x="339.38" y="-54.2" font-family="Helvetica Neue" font-size="14.00" fill="#333333">created_at (timestamp)</text>
<polygon fill="#ffffff" stroke="none" points="328.38,0 328.38,-39.25 498.88,-39.25 498.88,0 328.38,0"/>
<polygon fill="none" stroke="black" points="328.38,0 328.38,-39.25 498.88,-39.25 498.88,0 328.38,0"/>
<text xml:space="preserve" text-anchor="start" x="339.38" y="-14.95" font-family="Helvetica Neue" font-size="14.00" fill="#333333">updated_at (timestamp)</text>
</g>
<!-- appmodelsartikel&#45;&gt;appmodelsbudaya -->
<g id="edge2" class="edge">
<title>appmodelsartikel:budaya_id&#45;&gt;appmodelsbudaya:budaya_id</title>
<path fill="none" stroke="#f77f00" stroke-width="1.8" d="M176.65,-549.92C203.05,-512.04 306.25,-363.94 324.58,-337.63"/>
<polygon fill="#f77f00" stroke="#f77f00" stroke-width="1.8" points="176.56,-550.05 167.15,-555.68 173.36,-554.65 171.19,-557.76 171.19,-557.76 171.19,-557.76 173.36,-554.65 174.54,-560.83 176.56,-550.05"/>
<polygon fill="#f77f00" stroke="#f77f00" stroke-width="1.8" points="322.7,-331.59 330.91,-337.3 329.76,-338.94 321.56,-333.23 322.7,-331.59"/>
<polyline fill="none" stroke="#f77f00" stroke-width="1.8" points="327.38,-333.62 324.52,-337.73"/>
<text xml:space="preserve" text-anchor="middle" x="244.75" y="-456.89" font-family="Helvetica Neue" font-size="14.00"> </text>
<text xml:space="preserve" text-anchor="middle" x="281.37" y="-430.48" font-family="Helvetica Neue" font-size="14.00">BelongsTo</text>
<text xml:space="preserve" text-anchor="middle" x="281.37" y="-413.23" font-family="Helvetica Neue" font-size="14.00">budayas</text>
</g>
<!-- appmodelscomment -->
<g id="node4" class="node">
<title>appmodelscomment</title>
<polygon fill="none" stroke="black" points="827.25,-1096.62 656.75,-1096.62 656.75,-821.88 827.25,-821.88 827.25,-1096.62"/>
<polygon fill="#d3d3d3" stroke="none" points="656.75,-1057.38 656.75,-1096.62 827.25,-1096.62 827.25,-1057.38 656.75,-1057.38"/>
<polygon fill="none" stroke="black" points="656.75,-1057.38 656.75,-1096.62 827.25,-1096.62 827.25,-1057.38 656.75,-1057.38"/>
<text xml:space="preserve" text-anchor="start" x="712.38" y="-1072.33" font-family="Helvetica Neue" font-size="14.00" fill="#333333">Comment</text>
<polygon fill="#ffffff" stroke="none" points="656.75,-1018.12 656.75,-1057.38 827.25,-1057.38 827.25,-1018.12 656.75,-1018.12"/>
<polygon fill="none" stroke="black" points="656.75,-1018.12 656.75,-1057.38 827.25,-1057.38 827.25,-1018.12 656.75,-1018.12"/>
<text xml:space="preserve" text-anchor="start" x="667.75" y="-1033.08" font-family="Helvetica Neue" font-size="14.00" fill="#333333">comment_id (int)</text>
<polygon fill="#ffffff" stroke="none" points="656.75,-978.88 656.75,-1018.12 827.25,-1018.12 827.25,-978.88 656.75,-978.88"/>
<polygon fill="none" stroke="black" points="656.75,-978.88 656.75,-1018.12 827.25,-1018.12 827.25,-978.88 656.75,-978.88"/>
<text xml:space="preserve" text-anchor="start" x="667.75" y="-993.83" font-family="Helvetica Neue" font-size="14.00" fill="#333333">comment (text)</text>
<polygon fill="#ffffff" stroke="none" points="656.75,-939.62 656.75,-978.88 827.25,-978.88 827.25,-939.62 656.75,-939.62"/>
<polygon fill="none" stroke="black" points="656.75,-939.62 656.75,-978.88 827.25,-978.88 827.25,-939.62 656.75,-939.62"/>
<text xml:space="preserve" text-anchor="start" x="667.75" y="-954.58" font-family="Helvetica Neue" font-size="14.00" fill="#333333">user_id (bigint)</text>
<polygon fill="#ffffff" stroke="none" points="656.75,-900.38 656.75,-939.62 827.25,-939.62 827.25,-900.38 656.75,-900.38"/>
<polygon fill="none" stroke="black" points="656.75,-900.38 656.75,-939.62 827.25,-939.62 827.25,-900.38 656.75,-900.38"/>
<text xml:space="preserve" text-anchor="start" x="667.75" y="-915.33" font-family="Helvetica Neue" font-size="14.00" fill="#333333">artikel_id (bigint)</text>
<polygon fill="#ffffff" stroke="none" points="656.75,-861.12 656.75,-900.38 827.25,-900.38 827.25,-861.12 656.75,-861.12"/>
<polygon fill="none" stroke="black" points="656.75,-861.12 656.75,-900.38 827.25,-900.38 827.25,-861.12 656.75,-861.12"/>
<text xml:space="preserve" text-anchor="start" x="667.75" y="-876.08" font-family="Helvetica Neue" font-size="14.00" fill="#333333">created_at (timestamp)</text>
<polygon fill="#ffffff" stroke="none" points="656.75,-821.88 656.75,-861.12 827.25,-861.12 827.25,-821.88 656.75,-821.88"/>
<polygon fill="none" stroke="black" points="656.75,-821.88 656.75,-861.12 827.25,-861.12 827.25,-821.88 656.75,-821.88"/>
<text xml:space="preserve" text-anchor="start" x="667.75" y="-836.83" font-family="Helvetica Neue" font-size="14.00" fill="#333333">updated_at (timestamp)</text>
</g>
<!-- appmodelsartikel&#45;&gt;appmodelscomment -->
<g id="edge3" class="edge">
<title>appmodelsartikel:artikel_id&#45;&gt;appmodelscomment:artikel_id</title>
<path fill="none" stroke="#fcbf49" stroke-width="1.8" d="M170.5,-794.25C170.5,-794.25 319,-1054.25 319,-1054.25 319,-1054.25 508.25,-1054.25 508.25,-1054.25 508.25,-1054.25 584.75,-994.25 584.75,-994.25 584.75,-994.25 630.92,-946.64 649.32,-927.67"/>
<polygon fill="#fcbf49" stroke="#fcbf49" stroke-width="1.8" points="649.37,-927.61 659.56,-923.56 653.27,-923.59 655.91,-920.86 655.91,-920.86 655.91,-920.86 653.27,-923.59 653.1,-917.3 649.37,-927.61"/>
<text xml:space="preserve" text-anchor="middle" x="413.62" y="-1058.2" font-family="Helvetica Neue" font-size="14.00"> </text>
<text xml:space="preserve" text-anchor="middle" x="327.03" y="-1040.95" font-family="Helvetica Neue" font-size="14.00">HasMany</text>
<text xml:space="preserve" text-anchor="middle" x="327.03" y="-1023.7" font-family="Helvetica Neue" font-size="14.00">comments</text>
</g>
<!-- appmodelsuser&#45;&gt;appmodelsartikel -->
<g id="edge13" class="edge">
<title>appmodelsuser:user_id&#45;&gt;appmodelsartikel:user_id</title>
<path fill="none" stroke="#fcbf49" stroke-width="1.8" d="M319,-959.62C319,-959.62 247,-744 247,-744 247,-744 192.03,-639.1 175.29,-607.13"/>
<polygon fill="#fcbf49" stroke="#fcbf49" stroke-width="1.8" points="175.42,-607.39 174.77,-596.44 172.82,-602.43 171.06,-599.07 171.06,-599.07 171.06,-599.07 172.82,-602.43 166.79,-600.62 175.42,-607.39"/>
<text xml:space="preserve" text-anchor="middle" x="244.75" y="-747.95" font-family="Helvetica Neue" font-size="14.00"> </text>
<text xml:space="preserve" text-anchor="middle" x="286.28" y="-765.23" font-family="Helvetica Neue" font-size="14.00">HasMany</text>
<text xml:space="preserve" text-anchor="middle" x="286.28" y="-747.98" font-family="Helvetica Neue" font-size="14.00">artikels</text>
</g>
<!-- appmodelsuser&#45;&gt;appmodelscomment -->
<g id="edge14" class="edge">
<title>appmodelsuser:user_id&#45;&gt;appmodelscomment:user_id</title>
<path fill="none" stroke="#fcbf49" stroke-width="1.8" d="M508.25,-959.62C508.25,-959.62 580.25,-924 580.25,-924 580.25,-924 584.75,-924 584.75,-924 584.75,-924 627.82,-945.09 647.34,-954.64"/>
<polygon fill="#fcbf49" stroke="#fcbf49" stroke-width="1.8" points="647.23,-954.59 654.23,-963.03 652.26,-957.05 655.67,-958.72 655.67,-958.72 655.67,-958.72 652.26,-957.05 658.19,-954.94 647.23,-954.59"/>
<text xml:space="preserve" text-anchor="middle" x="582.5" y="-927.95" font-family="Helvetica Neue" font-size="14.00"> </text>
<text xml:space="preserve" text-anchor="middle" x="545.62" y="-912.06" font-family="Helvetica Neue" font-size="14.00">HasMany</text>
<text xml:space="preserve" text-anchor="middle" x="545.62" y="-894.81" font-family="Helvetica Neue" font-size="14.00">comments</text>
</g>
<!-- appmodelsbudaya&#45;&gt;appmodelsartikel -->
<g id="edge4" class="edge">
<title>appmodelsbudaya:budaya_id&#45;&gt;appmodelsartikel:budaya_id</title>
<path fill="none" stroke="#fcbf49" stroke-width="1.8" d="M327.38,-333.62C327.38,-333.62 242.5,-418 242.5,-418 242.5,-418 191.24,-518.2 175.22,-549.51"/>
<polygon fill="#fcbf49" stroke="#fcbf49" stroke-width="1.8" points="175.33,-549.31 166.77,-556.16 172.78,-554.3 171.05,-557.68 171.05,-557.68 171.05,-557.68 172.78,-554.3 174.78,-560.26 175.33,-549.31"/>
<text xml:space="preserve" text-anchor="middle" x="244.75" y="-421.95" font-family="Helvetica Neue" font-size="14.00"> </text>
<text xml:space="preserve" text-anchor="middle" x="208.36" y="-417.18" font-family="Helvetica Neue" font-size="14.00">HasMany</text>
<text xml:space="preserve" text-anchor="middle" x="208.36" y="-399.93" font-family="Helvetica Neue" font-size="14.00">artikels</text>
</g>
<!-- appmodelspustaka -->
<g id="node5" class="node">
<title>appmodelspustaka</title>
<polygon fill="none" stroke="black" points="827.25,-627.5 656.75,-627.5 656.75,-235 827.25,-235 827.25,-627.5"/>
<polygon fill="#d3d3d3" stroke="none" points="656.75,-588.25 656.75,-627.5 827.25,-627.5 827.25,-588.25 656.75,-588.25"/>
<polygon fill="none" stroke="black" points="656.75,-588.25 656.75,-627.5 827.25,-627.5 827.25,-588.25 656.75,-588.25"/>
<text xml:space="preserve" text-anchor="start" x="718.38" y="-603.2" font-family="Helvetica Neue" font-size="14.00" fill="#333333">Pustaka</text>
<polygon fill="#ffffff" stroke="none" points="656.75,-549 656.75,-588.25 827.25,-588.25 827.25,-549 656.75,-549"/>
<polygon fill="none" stroke="black" points="656.75,-549 656.75,-588.25 827.25,-588.25 827.25,-549 656.75,-549"/>
<text xml:space="preserve" text-anchor="start" x="667.75" y="-563.95" font-family="Helvetica Neue" font-size="14.00" fill="#333333">pustaka_id (int)</text>
<polygon fill="#ffffff" stroke="none" points="656.75,-509.75 656.75,-549 827.25,-549 827.25,-509.75 656.75,-509.75"/>
<polygon fill="none" stroke="black" points="656.75,-509.75 656.75,-549 827.25,-549 827.25,-509.75 656.75,-509.75"/>
<text xml:space="preserve" text-anchor="start" x="667.75" y="-524.7" font-family="Helvetica Neue" font-size="14.00" fill="#333333">judul (varchar)</text>
<polygon fill="#ffffff" stroke="none" points="656.75,-470.5 656.75,-509.75 827.25,-509.75 827.25,-470.5 656.75,-470.5"/>
<polygon fill="none" stroke="black" points="656.75,-470.5 656.75,-509.75 827.25,-509.75 827.25,-470.5 656.75,-470.5"/>
<text xml:space="preserve" text-anchor="start" x="667.75" y="-485.45" font-family="Helvetica Neue" font-size="14.00" fill="#333333">author (varchar)</text>
<polygon fill="#ffffff" stroke="none" points="656.75,-431.25 656.75,-470.5 827.25,-470.5 827.25,-431.25 656.75,-431.25"/>
<polygon fill="none" stroke="black" points="656.75,-431.25 656.75,-470.5 827.25,-470.5 827.25,-431.25 656.75,-431.25"/>
<text xml:space="preserve" text-anchor="start" x="667.75" y="-446.2" font-family="Helvetica Neue" font-size="14.00" fill="#333333">tema (varchar)</text>
<polygon fill="#ffffff" stroke="none" points="656.75,-392 656.75,-431.25 827.25,-431.25 827.25,-392 656.75,-392"/>
<polygon fill="none" stroke="black" points="656.75,-392 656.75,-431.25 827.25,-431.25 827.25,-392 656.75,-392"/>
<text xml:space="preserve" text-anchor="start" x="667.75" y="-406.95" font-family="Helvetica Neue" font-size="14.00" fill="#333333">sinopsis (text)</text>
<polygon fill="#ffffff" stroke="none" points="656.75,-352.75 656.75,-392 827.25,-392 827.25,-352.75 656.75,-352.75"/>
<polygon fill="none" stroke="black" points="656.75,-352.75 656.75,-392 827.25,-392 827.25,-352.75 656.75,-352.75"/>
<text xml:space="preserve" text-anchor="start" x="667.75" y="-367.7" font-family="Helvetica Neue" font-size="14.00" fill="#333333">tahun_terbit (date)</text>
<polygon fill="#ffffff" stroke="none" points="656.75,-313.5 656.75,-352.75 827.25,-352.75 827.25,-313.5 656.75,-313.5"/>
<polygon fill="none" stroke="black" points="656.75,-313.5 656.75,-352.75 827.25,-352.75 827.25,-313.5 656.75,-313.5"/>
<text xml:space="preserve" text-anchor="start" x="667.75" y="-328.45" font-family="Helvetica Neue" font-size="14.00" fill="#333333">budaya_id (bigint)</text>
<polygon fill="#ffffff" stroke="none" points="656.75,-274.25 656.75,-313.5 827.25,-313.5 827.25,-274.25 656.75,-274.25"/>
<polygon fill="none" stroke="black" points="656.75,-274.25 656.75,-313.5 827.25,-313.5 827.25,-274.25 656.75,-274.25"/>
<text xml:space="preserve" text-anchor="start" x="667.75" y="-289.2" font-family="Helvetica Neue" font-size="14.00" fill="#333333">created_at (timestamp)</text>
<polygon fill="#ffffff" stroke="none" points="656.75,-235 656.75,-274.25 827.25,-274.25 827.25,-235 656.75,-235"/>
<polygon fill="none" stroke="black" points="656.75,-235 656.75,-274.25 827.25,-274.25 827.25,-235 656.75,-235"/>
<text xml:space="preserve" text-anchor="start" x="667.75" y="-249.95" font-family="Helvetica Neue" font-size="14.00" fill="#333333">updated_at (timestamp)</text>
</g>
<!-- appmodelsbudaya&#45;&gt;appmodelspustaka -->
<g id="edge5" class="edge">
<title>appmodelsbudaya:budaya_id&#45;&gt;appmodelspustaka:budaya_id</title>
<path fill="none" stroke="#fcbf49" stroke-width="1.8" d="M499.88,-333.62C499.88,-333.62 610.52,-333.27 645.97,-333.16"/>
<polygon fill="#fcbf49" stroke="#fcbf49" stroke-width="1.8" points="646.15,-333.16 656.16,-337.63 651.75,-333.14 655.55,-333.13 655.55,-333.13 655.55,-333.13 651.75,-333.14 656.13,-328.63 646.15,-333.16"/>
<text xml:space="preserve" text-anchor="middle" x="582.5" y="-337.31" font-family="Helvetica Neue" font-size="14.00"> </text>
<text xml:space="preserve" text-anchor="middle" x="545.17" y="-320.09" font-family="Helvetica Neue" font-size="14.00">HasMany</text>
<text xml:space="preserve" text-anchor="middle" x="545.17" y="-302.84" font-family="Helvetica Neue" font-size="14.00">pustakas</text>
</g>
<!-- appmodelscomment&#45;&gt;appmodelsartikel -->
<g id="edge7" class="edge">
<title>appmodelscomment:artikel_id&#45;&gt;appmodelsartikel:artikel_id</title>
<path fill="none" stroke="#f77f00" stroke-width="1.8" d="M652.62,-910.36C628.64,-854.31 508.25,-573 508.25,-573 508.25,-573 319,-573 319,-573 319,-573 192.8,-761.03 173.08,-790.41"/>
<polygon fill="#f77f00" stroke="#f77f00" stroke-width="1.8" points="652.58,-910.25 652.38,-921.22 654.78,-915.4 656.28,-918.89 656.28,-918.89 656.28,-918.89 654.78,-915.4 660.65,-917.68 652.58,-910.25"/>
<polygon fill="#f77f00" stroke="#f77f00" stroke-width="1.8" points="175.21,-796.21 166.91,-790.63 168.02,-788.97 176.32,-794.55 175.21,-796.21"/>
<polyline fill="none" stroke="#f77f00" stroke-width="1.8" points="170.5,-794.25 173.29,-790.1"/>
<text xml:space="preserve" text-anchor="middle" x="413.62" y="-576.95" font-family="Helvetica Neue" font-size="14.00"> </text>
<text xml:space="preserve" text-anchor="middle" x="435.43" y="-559.7" font-family="Helvetica Neue" font-size="14.00">BelongsTo</text>
<text xml:space="preserve" text-anchor="middle" x="435.43" y="-542.45" font-family="Helvetica Neue" font-size="14.00">artikel</text>
</g>
<!-- appmodelscomment&#45;&gt;appmodelsuser -->
<g id="edge6" class="edge">
<title>appmodelscomment:user_id&#45;&gt;appmodelsuser:user_id</title>
<path fill="none" stroke="#f77f00" stroke-width="1.8" d="M646.14,-959.28C616.6,-959.35 534.23,-959.56 513.19,-959.61"/>
<polygon fill="#f77f00" stroke="#f77f00" stroke-width="1.8" points="646.15,-959.28 656.16,-963.75 651.75,-959.26 655.55,-959.25 655.55,-959.25 655.55,-959.25 651.75,-959.26 656.14,-954.75 646.15,-959.28"/>
<polygon fill="#f77f00" stroke="#f77f00" stroke-width="1.8" points="509.26,-964.62 509.24,-954.62 511.24,-954.62 511.26,-964.62 509.26,-964.62"/>
<polyline fill="none" stroke="#f77f00" stroke-width="1.8" points="508.25,-959.62 513.25,-959.61"/>
<text xml:space="preserve" text-anchor="middle" x="582.5" y="-963.39" font-family="Helvetica Neue" font-size="14.00"> </text>
<text xml:space="preserve" text-anchor="middle" x="548.91" y="-980.64" font-family="Helvetica Neue" font-size="14.00">BelongsTo</text>
<text xml:space="preserve" text-anchor="middle" x="548.91" y="-963.39" font-family="Helvetica Neue" font-size="14.00">user</text>
</g>
<!-- appmodelspustaka&#45;&gt;appmodelsbudaya -->
<g id="edge12" class="edge">
<title>appmodelspustaka:budaya_id&#45;&gt;appmodelsbudaya:budaya_id</title>
<path fill="none" stroke="#f77f00" stroke-width="1.8" d="M647.34,-328.53C627.82,-319.01 584.75,-298 584.75,-298 584.75,-298 580.25,-298 580.25,-298 580.25,-298 520.89,-324.31 504.2,-331.71"/>
<polygon fill="#f77f00" stroke="#f77f00" stroke-width="1.8" points="647.22,-328.48 654.24,-336.91 652.26,-330.93 655.67,-332.6 655.67,-332.6 655.67,-332.6 652.26,-330.93 658.18,-328.82 647.22,-328.48"/>
<polygon fill="#f77f00" stroke="#f77f00" stroke-width="1.8" points="502.82,-337.79 498.76,-328.65 500.59,-327.84 504.64,-336.98 502.82,-337.79"/>
<polyline fill="none" stroke="#f77f00" stroke-width="1.8" points="499.88,-333.62 504.45,-331.6"/>
<text xml:space="preserve" text-anchor="middle" x="582.5" y="-301.95" font-family="Helvetica Neue" font-size="14.00"> </text>
<text xml:space="preserve" text-anchor="middle" x="606.86" y="-286.53" font-family="Helvetica Neue" font-size="14.00">BelongsTo</text>
<text xml:space="preserve" text-anchor="middle" x="606.86" y="-269.28" font-family="Helvetica Neue" font-size="14.00">budayas</text>
</g>
<!-- appmodelsevent -->
<g id="node6" class="node">
<title>appmodelsevent</title>
<polygon fill="none" stroke="black" points="170.5,-1681.88 0,-1681.88 0,-1328.62 170.5,-1328.62 170.5,-1681.88"/>
<polygon fill="#d3d3d3" stroke="none" points="0,-1642.62 0,-1681.88 170.5,-1681.88 170.5,-1642.62 0,-1642.62"/>
<polygon fill="none" stroke="black" points="0,-1642.62 0,-1681.88 170.5,-1681.88 170.5,-1642.62 0,-1642.62"/>
<text xml:space="preserve" text-anchor="start" x="68.38" y="-1657.58" font-family="Helvetica Neue" font-size="14.00" fill="#333333">Event</text>
<polygon fill="#ffffff" stroke="none" points="0,-1603.38 0,-1642.62 170.5,-1642.62 170.5,-1603.38 0,-1603.38"/>
<polygon fill="none" stroke="black" points="0,-1603.38 0,-1642.62 170.5,-1642.62 170.5,-1603.38 0,-1603.38"/>
<text xml:space="preserve" text-anchor="start" x="11" y="-1618.33" font-family="Helvetica Neue" font-size="14.00" fill="#333333">event_id (int)</text>
<polygon fill="#ffffff" stroke="none" points="0,-1564.12 0,-1603.38 170.5,-1603.38 170.5,-1564.12 0,-1564.12"/>
<polygon fill="none" stroke="black" points="0,-1564.12 0,-1603.38 170.5,-1603.38 170.5,-1564.12 0,-1564.12"/>
<text xml:space="preserve" text-anchor="start" x="11" y="-1579.08" font-family="Helvetica Neue" font-size="14.00" fill="#333333">nama (varchar)</text>
<polygon fill="#ffffff" stroke="none" points="0,-1524.88 0,-1564.12 170.5,-1564.12 170.5,-1524.88 0,-1524.88"/>
<polygon fill="none" stroke="black" points="0,-1524.88 0,-1564.12 170.5,-1564.12 170.5,-1524.88 0,-1524.88"/>
<text xml:space="preserve" text-anchor="start" x="11" y="-1539.83" font-family="Helvetica Neue" font-size="14.00" fill="#333333">deskripsi (text)</text>
<polygon fill="#ffffff" stroke="none" points="0,-1485.62 0,-1524.88 170.5,-1524.88 170.5,-1485.62 0,-1485.62"/>
<polygon fill="none" stroke="black" points="0,-1485.62 0,-1524.88 170.5,-1524.88 170.5,-1485.62 0,-1485.62"/>
<text xml:space="preserve" text-anchor="start" x="11" y="-1500.58" font-family="Helvetica Neue" font-size="14.00" fill="#333333">jadwal (timestamp)</text>
<polygon fill="#ffffff" stroke="none" points="0,-1446.38 0,-1485.62 170.5,-1485.62 170.5,-1446.38 0,-1446.38"/>
<polygon fill="none" stroke="black" points="0,-1446.38 0,-1485.62 170.5,-1485.62 170.5,-1446.38 0,-1446.38"/>
<text xml:space="preserve" text-anchor="start" x="11" y="-1461.33" font-family="Helvetica Neue" font-size="14.00" fill="#333333">harga_tiket (decimal)</text>
<polygon fill="#ffffff" stroke="none" points="0,-1407.12 0,-1446.38 170.5,-1446.38 170.5,-1407.12 0,-1407.12"/>
<polygon fill="none" stroke="black" points="0,-1407.12 0,-1446.38 170.5,-1446.38 170.5,-1407.12 0,-1407.12"/>
<text xml:space="preserve" text-anchor="start" x="11" y="-1422.08" font-family="Helvetica Neue" font-size="14.00" fill="#333333">lokasi_id (bigint)</text>
<polygon fill="#ffffff" stroke="none" points="0,-1367.88 0,-1407.12 170.5,-1407.12 170.5,-1367.88 0,-1367.88"/>
<polygon fill="none" stroke="black" points="0,-1367.88 0,-1407.12 170.5,-1407.12 170.5,-1367.88 0,-1367.88"/>
<text xml:space="preserve" text-anchor="start" x="11" y="-1382.83" font-family="Helvetica Neue" font-size="14.00" fill="#333333">created_at (timestamp)</text>
<polygon fill="#ffffff" stroke="none" points="0,-1328.62 0,-1367.88 170.5,-1367.88 170.5,-1328.62 0,-1328.62"/>
<polygon fill="none" stroke="black" points="0,-1328.62 0,-1367.88 170.5,-1367.88 170.5,-1328.62 0,-1328.62"/>
<text xml:space="preserve" text-anchor="start" x="11" y="-1343.58" font-family="Helvetica Neue" font-size="14.00" fill="#333333">updated_at (timestamp)</text>
</g>
<!-- appmodelslokasi -->
<g id="node7" class="node">
<title>appmodelslokasi</title>
<polygon fill="none" stroke="black" points="498.88,-1487 328.38,-1487 328.38,-1251.5 498.88,-1251.5 498.88,-1487"/>
<polygon fill="#d3d3d3" stroke="none" points="328.38,-1447.75 328.38,-1487 498.88,-1487 498.88,-1447.75 328.38,-1447.75"/>
<polygon fill="none" stroke="black" points="328.38,-1447.75 328.38,-1487 498.88,-1487 498.88,-1447.75 328.38,-1447.75"/>
<text xml:space="preserve" text-anchor="start" x="394.88" y="-1462.7" font-family="Helvetica Neue" font-size="14.00" fill="#333333">Lokasi</text>
<polygon fill="#ffffff" stroke="none" points="328.38,-1408.5 328.38,-1447.75 498.88,-1447.75 498.88,-1408.5 328.38,-1408.5"/>
<polygon fill="none" stroke="black" points="328.38,-1408.5 328.38,-1447.75 498.88,-1447.75 498.88,-1408.5 328.38,-1408.5"/>
<text xml:space="preserve" text-anchor="start" x="339.38" y="-1423.45" font-family="Helvetica Neue" font-size="14.00" fill="#333333">lokasi_id (int)</text>
<polygon fill="#ffffff" stroke="none" points="328.38,-1369.25 328.38,-1408.5 498.88,-1408.5 498.88,-1369.25 328.38,-1369.25"/>
<polygon fill="none" stroke="black" points="328.38,-1369.25 328.38,-1408.5 498.88,-1408.5 498.88,-1369.25 328.38,-1369.25"/>
<text xml:space="preserve" text-anchor="start" x="339.38" y="-1384.2" font-family="Helvetica Neue" font-size="14.00" fill="#333333">nama (varchar)</text>
<polygon fill="#ffffff" stroke="none" points="328.38,-1330 328.38,-1369.25 498.88,-1369.25 498.88,-1330 328.38,-1330"/>
<polygon fill="none" stroke="black" points="328.38,-1330 328.38,-1369.25 498.88,-1369.25 498.88,-1330 328.38,-1330"/>
<text xml:space="preserve" text-anchor="start" x="339.38" y="-1344.95" font-family="Helvetica Neue" font-size="14.00" fill="#333333">alamat (varchar)</text>
<polygon fill="#ffffff" stroke="none" points="328.38,-1290.75 328.38,-1330 498.88,-1330 498.88,-1290.75 328.38,-1290.75"/>
<polygon fill="none" stroke="black" points="328.38,-1290.75 328.38,-1330 498.88,-1330 498.88,-1290.75 328.38,-1290.75"/>
<text xml:space="preserve" text-anchor="start" x="339.38" y="-1305.7" font-family="Helvetica Neue" font-size="14.00" fill="#333333">created_at (timestamp)</text>
<polygon fill="#ffffff" stroke="none" points="328.38,-1251.5 328.38,-1290.75 498.88,-1290.75 498.88,-1251.5 328.38,-1251.5"/>
<polygon fill="none" stroke="black" points="328.38,-1251.5 328.38,-1290.75 498.88,-1290.75 498.88,-1251.5 328.38,-1251.5"/>
<text xml:space="preserve" text-anchor="start" x="339.38" y="-1266.45" font-family="Helvetica Neue" font-size="14.00" fill="#333333">updated_at (timestamp)</text>
</g>
<!-- appmodelsevent&#45;&gt;appmodelslokasi -->
<g id="edge8" class="edge">
<title>appmodelsevent:lokasi_id&#45;&gt;appmodelslokasi:lokasi_id</title>
<path fill="none" stroke="#f77f00" stroke-width="1.8" d="M181.28,-1426.84C212.29,-1427.12 300.89,-1427.89 322.55,-1428.08"/>
<polygon fill="#f77f00" stroke="#f77f00" stroke-width="1.8" points="181.1,-1426.84 171.14,-1422.26 175.5,-1426.79 171.7,-1426.76 171.7,-1426.76 171.7,-1426.76 175.5,-1426.79 171.06,-1431.26 181.1,-1426.84"/>
<polygon fill="#f77f00" stroke="#f77f00" stroke-width="1.8" points="326.42,-1423.12 326.33,-1433.12 324.33,-1433.1 324.42,-1423.1 326.42,-1423.12"/>
<polyline fill="none" stroke="#f77f00" stroke-width="1.8" points="327.38,-1428.12 322.38,-1428.08"/>
<text xml:space="preserve" text-anchor="middle" x="244.75" y="-1431.35" font-family="Helvetica Neue" font-size="14.00"> </text>
<text xml:space="preserve" text-anchor="middle" x="282.67" y="-1448.66" font-family="Helvetica Neue" font-size="14.00">BelongsTo</text>
<text xml:space="preserve" text-anchor="middle" x="282.67" y="-1431.41" font-family="Helvetica Neue" font-size="14.00">lokasis</text>
</g>
<!-- appmodelslokasi&#45;&gt;appmodelsevent -->
<g id="edge9" class="edge">
<title>appmodelslokasi:lokasi_id&#45;&gt;appmodelsevent:lokasi_id</title>
<path fill="none" stroke="#fcbf49" stroke-width="1.8" d="M327.38,-1428.12C327.38,-1428.12 247,-1392 247,-1392 247,-1392 242.5,-1392 242.5,-1392 242.5,-1392 199.86,-1412.58 180.21,-1422.06"/>
<polygon fill="#fcbf49" stroke="#fcbf49" stroke-width="1.8" points="180.05,-1422.14 169.09,-1422.44 175,-1424.58 171.58,-1426.23 171.58,-1426.23 171.58,-1426.23 175,-1424.58 173,-1430.54 180.05,-1422.14"/>
<text xml:space="preserve" text-anchor="middle" x="244.75" y="-1395.95" font-family="Helvetica Neue" font-size="14.00"> </text>
<text xml:space="preserve" text-anchor="middle" x="281.34" y="-1381.66" font-family="Helvetica Neue" font-size="14.00">HasMany</text>
<text xml:space="preserve" text-anchor="middle" x="281.34" y="-1364.41" font-family="Helvetica Neue" font-size="14.00">events</text>
</g>
<!-- appmodelsmakanan -->
<g id="node8" class="node">
<title>appmodelsmakanan</title>
<polygon fill="none" stroke="black" points="827.25,-1603.25 656.75,-1603.25 656.75,-1289.25 827.25,-1289.25 827.25,-1603.25"/>
<polygon fill="#d3d3d3" stroke="none" points="656.75,-1564 656.75,-1603.25 827.25,-1603.25 827.25,-1564 656.75,-1564"/>
<polygon fill="none" stroke="black" points="656.75,-1564 656.75,-1603.25 827.25,-1603.25 827.25,-1564 656.75,-1564"/>
<text xml:space="preserve" text-anchor="start" x="714.62" y="-1578.95" font-family="Helvetica Neue" font-size="14.00" fill="#333333">Makanan</text>
<polygon fill="#ffffff" stroke="none" points="656.75,-1524.75 656.75,-1564 827.25,-1564 827.25,-1524.75 656.75,-1524.75"/>
<polygon fill="none" stroke="black" points="656.75,-1524.75 656.75,-1564 827.25,-1564 827.25,-1524.75 656.75,-1524.75"/>
<text xml:space="preserve" text-anchor="start" x="667.75" y="-1539.7" font-family="Helvetica Neue" font-size="14.00" fill="#333333">makanan_id (int)</text>
<polygon fill="#ffffff" stroke="none" points="656.75,-1485.5 656.75,-1524.75 827.25,-1524.75 827.25,-1485.5 656.75,-1485.5"/>
<polygon fill="none" stroke="black" points="656.75,-1485.5 656.75,-1524.75 827.25,-1524.75 827.25,-1485.5 656.75,-1485.5"/>
<text xml:space="preserve" text-anchor="start" x="667.75" y="-1500.45" font-family="Helvetica Neue" font-size="14.00" fill="#333333">nama (varchar)</text>
<polygon fill="#ffffff" stroke="none" points="656.75,-1446.25 656.75,-1485.5 827.25,-1485.5 827.25,-1446.25 656.75,-1446.25"/>
<polygon fill="none" stroke="black" points="656.75,-1446.25 656.75,-1485.5 827.25,-1485.5 827.25,-1446.25 656.75,-1446.25"/>
<text xml:space="preserve" text-anchor="start" x="667.75" y="-1461.2" font-family="Helvetica Neue" font-size="14.00" fill="#333333">deskripsi (text)</text>
<polygon fill="#ffffff" stroke="none" points="656.75,-1407 656.75,-1446.25 827.25,-1446.25 827.25,-1407 656.75,-1407"/>
<polygon fill="none" stroke="black" points="656.75,-1407 656.75,-1446.25 827.25,-1446.25 827.25,-1407 656.75,-1407"/>
<text xml:space="preserve" text-anchor="start" x="667.75" y="-1421.95" font-family="Helvetica Neue" font-size="14.00" fill="#333333">lokasi_id (bigint)</text>
<polygon fill="#ffffff" stroke="none" points="656.75,-1367.75 656.75,-1407 827.25,-1407 827.25,-1367.75 656.75,-1367.75"/>
<polygon fill="none" stroke="black" points="656.75,-1367.75 656.75,-1407 827.25,-1407 827.25,-1367.75 656.75,-1367.75"/>
<text xml:space="preserve" text-anchor="start" x="667.75" y="-1382.7" font-family="Helvetica Neue" font-size="14.00" fill="#333333">user_id (bigint)</text>
<polygon fill="#ffffff" stroke="none" points="656.75,-1328.5 656.75,-1367.75 827.25,-1367.75 827.25,-1328.5 656.75,-1328.5"/>
<polygon fill="none" stroke="black" points="656.75,-1328.5 656.75,-1367.75 827.25,-1367.75 827.25,-1328.5 656.75,-1328.5"/>
<text xml:space="preserve" text-anchor="start" x="667.75" y="-1343.45" font-family="Helvetica Neue" font-size="14.00" fill="#333333">created_at (timestamp)</text>
<polygon fill="#ffffff" stroke="none" points="656.75,-1289.25 656.75,-1328.5 827.25,-1328.5 827.25,-1289.25 656.75,-1289.25"/>
<polygon fill="none" stroke="black" points="656.75,-1289.25 656.75,-1328.5 827.25,-1328.5 827.25,-1289.25 656.75,-1289.25"/>
<text xml:space="preserve" text-anchor="start" x="667.75" y="-1304.2" font-family="Helvetica Neue" font-size="14.00" fill="#333333">updated_at (timestamp)</text>
</g>
<!-- appmodelslokasi&#45;&gt;appmodelsmakanan -->
<g id="edge10" class="edge">
<title>appmodelslokasi:lokasi_id&#45;&gt;appmodelsmakanan:lokasi_id</title>
<path fill="none" stroke="#fcbf49" stroke-width="1.8" d="M499.88,-1428.12C499.88,-1428.12 610.52,-1427.07 645.97,-1426.73"/>
<polygon fill="#fcbf49" stroke="#fcbf49" stroke-width="1.8" points="646.15,-1426.73 656.19,-1431.13 651.75,-1426.67 655.55,-1426.64 655.55,-1426.64 655.55,-1426.64 651.75,-1426.67 656.1,-1422.13 646.15,-1426.73"/>
<text xml:space="preserve" text-anchor="middle" x="582.5" y="-1431.28" font-family="Helvetica Neue" font-size="14.00"> </text>
<text xml:space="preserve" text-anchor="middle" x="541.8" y="-1414.13" font-family="Helvetica Neue" font-size="14.00">HasMany</text>
<text xml:space="preserve" text-anchor="middle" x="541.8" y="-1396.88" font-family="Helvetica Neue" font-size="14.00">makanans</text>
</g>
<!-- appmodelsmakanan&#45;&gt;appmodelslokasi -->
<g id="edge11" class="edge">
<title>appmodelsmakanan:lokasi_id&#45;&gt;appmodelslokasi:lokasi_id</title>
<path fill="none" stroke="#f77f00" stroke-width="1.8" d="M647.04,-1421.96C627.39,-1412.5 584.75,-1392 584.75,-1392 584.75,-1392 580.25,-1392 580.25,-1392 580.25,-1392 520.89,-1418.68 504.2,-1426.18"/>
<polygon fill="#f77f00" stroke="#f77f00" stroke-width="1.8" points="647.2,-1422.03 654.26,-1430.42 652.24,-1424.46 655.66,-1426.1 655.66,-1426.1 655.66,-1426.1 652.24,-1424.46 658.16,-1422.31 647.2,-1422.03"/>
<polygon fill="#f77f00" stroke="#f77f00" stroke-width="1.8" points="502.84,-1432.28 498.74,-1423.15 500.56,-1422.33 504.66,-1431.46 502.84,-1432.28"/>
<polyline fill="none" stroke="#f77f00" stroke-width="1.8" points="499.88,-1428.12 504.44,-1426.08"/>
<text xml:space="preserve" text-anchor="middle" x="582.5" y="-1395.95" font-family="Helvetica Neue" font-size="14.00"> </text>
<text xml:space="preserve" text-anchor="middle" x="606.55" y="-1380.7" font-family="Helvetica Neue" font-size="14.00">BelongsTo</text>
<text xml:space="preserve" text-anchor="middle" x="606.55" y="-1363.45" font-family="Helvetica Neue" font-size="14.00">lokasis</text>
</g>
</g>
</svg>
