<?xml version="1.0" encoding="UTF-8" standalone="no"?>
<!DOCTYPE svg PUBLIC "-//W3C//DTD SVG 1.1//EN"
 "http://www.w3.org/Graphics/SVG/1.1/DTD/svg11.dtd">
<!-- Generated by graphviz version 13.1.2 (20250808.2320)
 -->
<!-- Title: G Pages: 1 -->
<svg width="1218pt" height="1624pt"
 viewBox="0.00 0.00 1218.00 1624.00" xmlns="http://www.w3.org/2000/svg" xmlns:xlink="http://www.w3.org/1999/xlink">
<g id="graph0" class="graph" transform="scale(1 1) rotate(0) translate(36 1587.88)">
<title>G</title>
<polygon fill="#f7f7f7" stroke="none" points="-36,36 -36,-1587.88 1182.25,-1587.88 1182.25,36 -36,36"/>
<!-- appmodelsbudaya -->
<g id="node1" class="node">
<title>appmodelsbudaya</title>
<polygon fill="none" stroke="black" points="170.12,-1203.88 0.38,-1203.88 0.38,-811.38 170.12,-811.38 170.12,-1203.88"/>
<polygon fill="#d3d3d3" stroke="none" points="0.38,-1164.62 0.38,-1203.88 170.12,-1203.88 170.12,-1164.62 0.38,-1164.62"/>
<polygon fill="none" stroke="black" points="0.38,-1164.62 0.38,-1203.88 170.12,-1203.88 170.12,-1164.62 0.38,-1164.62"/>
<text xml:space="preserve" text-anchor="start" x="62.75" y="-1179.58" font-family="Helvetica Neue" font-size="14.00" fill="#333333">Budaya</text>
<polygon fill="#ffffff" stroke="none" points="0.38,-1125.38 0.38,-1164.62 170.12,-1164.62 170.12,-1125.38 0.38,-1125.38"/>
<polygon fill="none" stroke="black" points="0.38,-1125.38 0.38,-1164.62 170.12,-1164.62 170.12,-1125.38 0.38,-1125.38"/>
<text xml:space="preserve" text-anchor="start" x="11.38" y="-1140.33" font-family="Helvetica Neue" font-size="14.00" fill="#333333">id (bigint)</text>
<polygon fill="#ffffff" stroke="none" points="0.38,-1086.12 0.38,-1125.38 170.12,-1125.38 170.12,-1086.12 0.38,-1086.12"/>
<polygon fill="none" stroke="black" points="0.38,-1086.12 0.38,-1125.38 170.12,-1125.38 170.12,-1086.12 0.38,-1086.12"/>
<text xml:space="preserve" text-anchor="start" x="11.38" y="-1101.08" font-family="Helvetica Neue" font-size="14.00" fill="#333333">user_id (bigint)</text>
<polygon fill="#ffffff" stroke="none" points="0.38,-1046.88 0.38,-1086.12 170.12,-1086.12 170.12,-1046.88 0.38,-1046.88"/>
<polygon fill="none" stroke="black" points="0.38,-1046.88 0.38,-1086.12 170.12,-1086.12 170.12,-1046.88 0.38,-1046.88"/>
<text xml:space="preserve" text-anchor="start" x="11.38" y="-1061.83" font-family="Helvetica Neue" font-size="14.00" fill="#333333">name (varchar)</text>
<polygon fill="#ffffff" stroke="none" points="0.38,-1007.62 0.38,-1046.88 170.12,-1046.88 170.12,-1007.62 0.38,-1007.62"/>
<polygon fill="none" stroke="black" points="0.38,-1007.62 0.38,-1046.88 170.12,-1046.88 170.12,-1007.62 0.38,-1007.62"/>
<text xml:space="preserve" text-anchor="start" x="11.38" y="-1022.58" font-family="Helvetica Neue" font-size="14.00" fill="#333333">jenis_budaya (varchar)</text>
<polygon fill="#ffffff" stroke="none" points="0.38,-968.38 0.38,-1007.62 170.12,-1007.62 170.12,-968.38 0.38,-968.38"/>
<polygon fill="none" stroke="black" points="0.38,-968.38 0.38,-1007.62 170.12,-1007.62 170.12,-968.38 0.38,-968.38"/>
<text xml:space="preserve" text-anchor="start" x="11.38" y="-983.33" font-family="Helvetica Neue" font-size="14.00" fill="#333333">nama_budaya (varchar)</text>
<polygon fill="#ffffff" stroke="none" points="0.38,-929.12 0.38,-968.38 170.12,-968.38 170.12,-929.12 0.38,-929.12"/>
<polygon fill="none" stroke="black" points="0.38,-929.12 0.38,-968.38 170.12,-968.38 170.12,-929.12 0.38,-929.12"/>
<text xml:space="preserve" text-anchor="start" x="11.38" y="-944.08" font-family="Helvetica Neue" font-size="14.00" fill="#333333">deskripsi_budaya (text)</text>
<polygon fill="#ffffff" stroke="none" points="0.38,-889.88 0.38,-929.12 170.12,-929.12 170.12,-889.88 0.38,-889.88"/>
<polygon fill="none" stroke="black" points="0.38,-889.88 0.38,-929.12 170.12,-929.12 170.12,-889.88 0.38,-889.88"/>
<text xml:space="preserve" text-anchor="start" x="11.38" y="-904.83" font-family="Helvetica Neue" font-size="14.00" fill="#333333">asal_daerah (varchar)</text>
<polygon fill="#ffffff" stroke="none" points="0.38,-850.62 0.38,-889.88 170.12,-889.88 170.12,-850.62 0.38,-850.62"/>
<polygon fill="none" stroke="black" points="0.38,-850.62 0.38,-889.88 170.12,-889.88 170.12,-850.62 0.38,-850.62"/>
<text xml:space="preserve" text-anchor="start" x="11.38" y="-865.58" font-family="Helvetica Neue" font-size="14.00" fill="#333333">status (enum)</text>
<polygon fill="#ffffff" stroke="none" points="0.38,-811.38 0.38,-850.62 170.12,-850.62 170.12,-811.38 0.38,-811.38"/>
<polygon fill="none" stroke="black" points="0.38,-811.38 0.38,-850.62 170.12,-850.62 170.12,-811.38 0.38,-811.38"/>
<text xml:space="preserve" text-anchor="start" x="11.38" y="-826.33" font-family="Helvetica Neue" font-size="14.00" fill="#333333">created_at (timestamp)</text>
</g>
<!-- appmodelsuser -->
<g id="node2" class="node">
<title>appmodelsuser</title>
<polygon fill="none" stroke="black" points="508.25,-1551.88 319,-1551.88 319,-1159.38 508.25,-1159.38 508.25,-1551.88"/>
<polygon fill="#d3d3d3" stroke="none" points="319,-1512.62 319,-1551.88 508.25,-1551.88 508.25,-1512.62 319,-1512.62"/>
<polygon fill="none" stroke="black" points="319,-1512.62 319,-1551.88 508.25,-1551.88 508.25,-1512.62 319,-1512.62"/>
<text xml:space="preserve" text-anchor="start" x="399.75" y="-1527.58" font-family="Helvetica Neue" font-size="14.00" fill="#333333">User</text>
<polygon fill="#ffffff" stroke="none" points="319,-1473.38 319,-1512.62 508.25,-1512.62 508.25,-1473.38 319,-1473.38"/>
<polygon fill="none" stroke="black" points="319,-1473.38 319,-1512.62 508.25,-1512.62 508.25,-1473.38 319,-1473.38"/>
<text xml:space="preserve" text-anchor="start" x="330" y="-1488.33" font-family="Helvetica Neue" font-size="14.00" fill="#333333">id (bigint)</text>
<polygon fill="#ffffff" stroke="none" points="319,-1434.12 319,-1473.38 508.25,-1473.38 508.25,-1434.12 319,-1434.12"/>
<polygon fill="none" stroke="black" points="319,-1434.12 319,-1473.38 508.25,-1473.38 508.25,-1434.12 319,-1434.12"/>
<text xml:space="preserve" text-anchor="start" x="330" y="-1449.08" font-family="Helvetica Neue" font-size="14.00" fill="#333333">username (varchar)</text>
<polygon fill="#ffffff" stroke="none" points="319,-1394.88 319,-1434.12 508.25,-1434.12 508.25,-1394.88 319,-1394.88"/>
<polygon fill="none" stroke="black" points="319,-1394.88 319,-1434.12 508.25,-1434.12 508.25,-1394.88 319,-1394.88"/>
<text xml:space="preserve" text-anchor="start" x="330" y="-1409.83" font-family="Helvetica Neue" font-size="14.00" fill="#333333">email (varchar)</text>
<polygon fill="#ffffff" stroke="none" points="319,-1355.62 319,-1394.88 508.25,-1394.88 508.25,-1355.62 319,-1355.62"/>
<polygon fill="none" stroke="black" points="319,-1355.62 319,-1394.88 508.25,-1394.88 508.25,-1355.62 319,-1355.62"/>
<text xml:space="preserve" text-anchor="start" x="330" y="-1370.58" font-family="Helvetica Neue" font-size="14.00" fill="#333333">role (enum)</text>
<polygon fill="#ffffff" stroke="none" points="319,-1316.38 319,-1355.62 508.25,-1355.62 508.25,-1316.38 319,-1316.38"/>
<polygon fill="none" stroke="black" points="319,-1316.38 319,-1355.62 508.25,-1355.62 508.25,-1316.38 319,-1316.38"/>
<text xml:space="preserve" text-anchor="start" x="330" y="-1331.33" font-family="Helvetica Neue" font-size="14.00" fill="#333333">foto (varchar)</text>
<polygon fill="#ffffff" stroke="none" points="319,-1277.12 319,-1316.38 508.25,-1316.38 508.25,-1277.12 319,-1277.12"/>
<polygon fill="none" stroke="black" points="319,-1277.12 319,-1316.38 508.25,-1316.38 508.25,-1277.12 319,-1277.12"/>
<text xml:space="preserve" text-anchor="start" x="330" y="-1292.08" font-family="Helvetica Neue" font-size="14.00" fill="#333333">password (varchar)</text>
<polygon fill="#ffffff" stroke="none" points="319,-1237.88 319,-1277.12 508.25,-1277.12 508.25,-1237.88 319,-1237.88"/>
<polygon fill="none" stroke="black" points="319,-1237.88 319,-1277.12 508.25,-1277.12 508.25,-1237.88 319,-1237.88"/>
<text xml:space="preserve" text-anchor="start" x="330" y="-1252.83" font-family="Helvetica Neue" font-size="14.00" fill="#333333">remember_token (varchar)</text>
<polygon fill="#ffffff" stroke="none" points="319,-1198.62 319,-1237.88 508.25,-1237.88 508.25,-1198.62 319,-1198.62"/>
<polygon fill="none" stroke="black" points="319,-1198.62 319,-1237.88 508.25,-1237.88 508.25,-1198.62 319,-1198.62"/>
<text xml:space="preserve" text-anchor="start" x="330" y="-1213.58" font-family="Helvetica Neue" font-size="14.00" fill="#333333">created_at (timestamp)</text>
<polygon fill="#ffffff" stroke="none" points="319,-1159.38 319,-1198.62 508.25,-1198.62 508.25,-1159.38 319,-1159.38"/>
<polygon fill="none" stroke="black" points="319,-1159.38 319,-1198.62 508.25,-1198.62 508.25,-1159.38 319,-1159.38"/>
<text xml:space="preserve" text-anchor="start" x="330" y="-1174.33" font-family="Helvetica Neue" font-size="14.00" fill="#333333">updated_at (timestamp)</text>
</g>
<!-- appmodelsbudaya&#45;&gt;appmodelsuser -->
<g id="edge1" class="edge">
<title>appmodelsbudaya:user_id&#45;&gt;appmodelsuser:user_id</title>
<path fill="none" stroke="#f77f00" stroke-width="1.8" d="M177.72,-1113.21C198.49,-1134.63 260.36,-1198.48 315.39,-1255.27"/>
<polygon fill="#f77f00" stroke="#f77f00" stroke-width="1.8" points="177.88,-1113.36 174.15,-1103.05 173.98,-1109.34 171.34,-1106.61 171.34,-1106.61 171.34,-1106.61 173.98,-1109.34 167.69,-1109.31 177.88,-1113.36"/>
<polygon fill="#f77f00" stroke="#f77f00" stroke-width="1.8" points="321.56,-1254.46 314.38,-1261.42 312.99,-1259.98 320.17,-1253.03 321.56,-1254.46"/>
<polyline fill="none" stroke="#f77f00" stroke-width="1.8" points="318.67,-1258.66 315.19,-1255.07"/>
<text xml:space="preserve" text-anchor="middle" x="244.75" y="-1187.01" font-family="Helvetica Neue" font-size="14.00"> </text>
<text xml:space="preserve" text-anchor="middle" x="277.31" y="-1170.94" font-family="Helvetica Neue" font-size="14.00">BelongsTo</text>
<text xml:space="preserve" text-anchor="middle" x="277.31" y="-1153.69" font-family="Helvetica Neue" font-size="14.00">user</text>
</g>
<!-- appmodelsartikel -->
<g id="node3" class="node">
<title>appmodelsartikel</title>
<polygon fill="none" stroke="black" points="1146.25,-1382.88 975.75,-1382.88 975.75,-990.38 1146.25,-990.38 1146.25,-1382.88"/>
<polygon fill="#d3d3d3" stroke="none" points="975.75,-1343.62 975.75,-1382.88 1146.25,-1382.88 1146.25,-1343.62 975.75,-1343.62"/>
<polygon fill="none" stroke="black" points="975.75,-1343.62 975.75,-1382.88 1146.25,-1382.88 1146.25,-1343.62 975.75,-1343.62"/>
<text xml:space="preserve" text-anchor="start" x="1041.88" y="-1358.58" font-family="Helvetica Neue" font-size="14.00" fill="#333333">Artikel</text>
<polygon fill="#ffffff" stroke="none" points="975.75,-1304.38 975.75,-1343.62 1146.25,-1343.62 1146.25,-1304.38 975.75,-1304.38"/>
<polygon fill="none" stroke="black" points="975.75,-1304.38 975.75,-1343.62 1146.25,-1343.62 1146.25,-1304.38 975.75,-1304.38"/>
<text xml:space="preserve" text-anchor="start" x="986.75" y="-1319.33" font-family="Helvetica Neue" font-size="14.00" fill="#333333">id (bigint)</text>
<polygon fill="#ffffff" stroke="none" points="975.75,-1265.12 975.75,-1304.38 1146.25,-1304.38 1146.25,-1265.12 975.75,-1265.12"/>
<polygon fill="none" stroke="black" points="975.75,-1265.12 975.75,-1304.38 1146.25,-1304.38 1146.25,-1265.12 975.75,-1265.12"/>
<text xml:space="preserve" text-anchor="start" x="986.75" y="-1280.08" font-family="Helvetica Neue" font-size="14.00" fill="#333333">judul (varchar)</text>
<polygon fill="#ffffff" stroke="none" points="975.75,-1225.88 975.75,-1265.12 1146.25,-1265.12 1146.25,-1225.88 975.75,-1225.88"/>
<polygon fill="none" stroke="black" points="975.75,-1225.88 975.75,-1265.12 1146.25,-1265.12 1146.25,-1225.88 975.75,-1225.88"/>
<text xml:space="preserve" text-anchor="start" x="986.75" y="-1240.83" font-family="Helvetica Neue" font-size="14.00" fill="#333333">deskripsi (varchar)</text>
<polygon fill="#ffffff" stroke="none" points="975.75,-1186.62 975.75,-1225.88 1146.25,-1225.88 1146.25,-1186.62 975.75,-1186.62"/>
<polygon fill="none" stroke="black" points="975.75,-1186.62 975.75,-1225.88 1146.25,-1225.88 1146.25,-1186.62 975.75,-1186.62"/>
<text xml:space="preserve" text-anchor="start" x="986.75" y="-1201.58" font-family="Helvetica Neue" font-size="14.00" fill="#333333">penulis (varchar)</text>
<polygon fill="#ffffff" stroke="none" points="975.75,-1147.38 975.75,-1186.62 1146.25,-1186.62 1146.25,-1147.38 975.75,-1147.38"/>
<polygon fill="none" stroke="black" points="975.75,-1147.38 975.75,-1186.62 1146.25,-1186.62 1146.25,-1147.38 975.75,-1147.38"/>
<text xml:space="preserve" text-anchor="start" x="986.75" y="-1162.33" font-family="Helvetica Neue" font-size="14.00" fill="#333333">topic (varchar)</text>
<polygon fill="#ffffff" stroke="none" points="975.75,-1108.12 975.75,-1147.38 1146.25,-1147.38 1146.25,-1108.12 975.75,-1108.12"/>
<polygon fill="none" stroke="black" points="975.75,-1108.12 975.75,-1147.38 1146.25,-1147.38 1146.25,-1108.12 975.75,-1108.12"/>
<text xml:space="preserve" text-anchor="start" x="986.75" y="-1123.08" font-family="Helvetica Neue" font-size="14.00" fill="#333333">user_id (bigint)</text>
<polygon fill="#ffffff" stroke="none" points="975.75,-1068.88 975.75,-1108.12 1146.25,-1108.12 1146.25,-1068.88 975.75,-1068.88"/>
<polygon fill="none" stroke="black" points="975.75,-1068.88 975.75,-1108.12 1146.25,-1108.12 1146.25,-1068.88 975.75,-1068.88"/>
<text xml:space="preserve" text-anchor="start" x="986.75" y="-1083.83" font-family="Helvetica Neue" font-size="14.00" fill="#333333">budaya_id (bigint)</text>
<polygon fill="#ffffff" stroke="none" points="975.75,-1029.62 975.75,-1068.88 1146.25,-1068.88 1146.25,-1029.62 975.75,-1029.62"/>
<polygon fill="none" stroke="black" points="975.75,-1029.62 975.75,-1068.88 1146.25,-1068.88 1146.25,-1029.62 975.75,-1029.62"/>
<text xml:space="preserve" text-anchor="start" x="986.75" y="-1044.58" font-family="Helvetica Neue" font-size="14.00" fill="#333333">created_at (timestamp)</text>
<polygon fill="#ffffff" stroke="none" points="975.75,-990.38 975.75,-1029.62 1146.25,-1029.62 1146.25,-990.38 975.75,-990.38"/>
<polygon fill="none" stroke="black" points="975.75,-990.38 975.75,-1029.62 1146.25,-1029.62 1146.25,-990.38 975.75,-990.38"/>
<text xml:space="preserve" text-anchor="start" x="986.75" y="-1005.33" font-family="Helvetica Neue" font-size="14.00" fill="#333333">updated_at (timestamp)</text>
</g>
<!-- appmodelsbudaya&#45;&gt;appmodelsartikel -->
<g id="edge2" class="edge">
<title>appmodelsbudaya:budaya_id&#45;&gt;appmodelsartikel:budaya_id</title>
<path fill="none" stroke="#fcbf49" stroke-width="1.8" d="M170.55,-880.3C207.45,-824.57 242.5,-771.62 242.5,-771.62 242.5,-771.62 319,-697.62 319,-697.62 319,-697.62 508.25,-697.62 508.25,-697.62 508.25,-697.62 905.56,-1029.81 967.64,-1081.72"/>
<polygon fill="#fcbf49" stroke="#fcbf49" stroke-width="1.8" points="967.62,-1081.7 972.4,-1091.57 971.91,-1085.29 974.83,-1087.73 974.83,-1087.73 974.83,-1087.73 971.91,-1085.29 978.17,-1084.66 967.62,-1081.7"/>
<text xml:space="preserve" text-anchor="middle" x="582.5" y="-764.35" font-family="Helvetica Neue" font-size="14.00"> </text>
<text xml:space="preserve" text-anchor="middle" x="546.78" y="-739.74" font-family="Helvetica Neue" font-size="14.00">HasMany</text>
<text xml:space="preserve" text-anchor="middle" x="546.78" y="-722.49" font-family="Helvetica Neue" font-size="14.00">artikel</text>
</g>
<!-- appmodelspustaka -->
<g id="node4" class="node">
<title>appmodelspustaka</title>
<polygon fill="none" stroke="black" points="497.38,-1087.25 329.88,-1087.25 329.88,-734 497.38,-734 497.38,-1087.25"/>
<polygon fill="#d3d3d3" stroke="none" points="329.88,-1048 329.88,-1087.25 497.38,-1087.25 497.38,-1048 329.88,-1048"/>
<polygon fill="none" stroke="black" points="329.88,-1048 329.88,-1087.25 497.38,-1087.25 497.38,-1048 329.88,-1048"/>
<text xml:space="preserve" text-anchor="start" x="390" y="-1062.95" font-family="Helvetica Neue" font-size="14.00" fill="#333333">Pustaka</text>
<polygon fill="#ffffff" stroke="none" points="329.88,-1008.75 329.88,-1048 497.38,-1048 497.38,-1008.75 329.88,-1008.75"/>
<polygon fill="none" stroke="black" points="329.88,-1008.75 329.88,-1048 497.38,-1048 497.38,-1008.75 329.88,-1008.75"/>
<text xml:space="preserve" text-anchor="start" x="340.88" y="-1023.7" font-family="Helvetica Neue" font-size="14.00" fill="#333333">id (bigint)</text>
<polygon fill="#ffffff" stroke="none" points="329.88,-969.5 329.88,-1008.75 497.38,-1008.75 497.38,-969.5 329.88,-969.5"/>
<polygon fill="none" stroke="black" points="329.88,-969.5 329.88,-1008.75 497.38,-1008.75 497.38,-969.5 329.88,-969.5"/>
<text xml:space="preserve" text-anchor="start" x="340.88" y="-984.45" font-family="Helvetica Neue" font-size="14.00" fill="#333333">judul (varchar)</text>
<polygon fill="#ffffff" stroke="none" points="329.88,-930.25 329.88,-969.5 497.38,-969.5 497.38,-930.25 329.88,-930.25"/>
<polygon fill="none" stroke="black" points="329.88,-930.25 329.88,-969.5 497.38,-969.5 497.38,-930.25 329.88,-930.25"/>
<text xml:space="preserve" text-anchor="start" x="340.88" y="-945.2" font-family="Helvetica Neue" font-size="14.00" fill="#333333">author (varchar)</text>
<polygon fill="#ffffff" stroke="none" points="329.88,-891 329.88,-930.25 497.38,-930.25 497.38,-891 329.88,-891"/>
<polygon fill="none" stroke="black" points="329.88,-891 329.88,-930.25 497.38,-930.25 497.38,-891 329.88,-891"/>
<text xml:space="preserve" text-anchor="start" x="340.88" y="-905.95" font-family="Helvetica Neue" font-size="14.00" fill="#333333">tema (varchar)</text>
<polygon fill="#ffffff" stroke="none" points="329.88,-851.75 329.88,-891 497.38,-891 497.38,-851.75 329.88,-851.75"/>
<polygon fill="none" stroke="black" points="329.88,-851.75 329.88,-891 497.38,-891 497.38,-851.75 329.88,-851.75"/>
<text xml:space="preserve" text-anchor="start" x="340.88" y="-866.7" font-family="Helvetica Neue" font-size="14.00" fill="#333333">sinopsis (text)</text>
<polygon fill="#ffffff" stroke="none" points="329.88,-812.5 329.88,-851.75 497.38,-851.75 497.38,-812.5 329.88,-812.5"/>
<polygon fill="none" stroke="black" points="329.88,-812.5 329.88,-851.75 497.38,-851.75 497.38,-812.5 329.88,-812.5"/>
<text xml:space="preserve" text-anchor="start" x="340.88" y="-827.45" font-family="Helvetica Neue" font-size="14.00" fill="#333333">tahun_terbit (date)</text>
<polygon fill="#ffffff" stroke="none" points="329.88,-773.25 329.88,-812.5 497.38,-812.5 497.38,-773.25 329.88,-773.25"/>
<polygon fill="none" stroke="black" points="329.88,-773.25 329.88,-812.5 497.38,-812.5 497.38,-773.25 329.88,-773.25"/>
<text xml:space="preserve" text-anchor="start" x="340.88" y="-788.2" font-family="Helvetica Neue" font-size="14.00" fill="#333333">budaya_id (bigint)</text>
<polygon fill="#ffffff" stroke="none" points="329.88,-734 329.88,-773.25 497.38,-773.25 497.38,-734 329.88,-734"/>
<polygon fill="none" stroke="black" points="329.88,-734 329.88,-773.25 497.38,-773.25 497.38,-734 329.88,-734"/>
<text xml:space="preserve" text-anchor="start" x="340.88" y="-748.95" font-family="Helvetica Neue" font-size="14.00" fill="#333333">created_at (timestamp)</text>
</g>
<!-- appmodelsbudaya&#45;&gt;appmodelspustaka -->
<g id="edge3" class="edge">
<title>appmodelsbudaya:budaya_id&#45;&gt;appmodelspustaka:budaya_id</title>
<path fill="none" stroke="#fcbf49" stroke-width="1.8" d="M170.39,-960.52C209.28,-938.74 247,-917.62 247,-917.62 247,-917.62 304.21,-830.45 322.99,-801.85"/>
<polygon fill="#fcbf49" stroke="#fcbf49" stroke-width="1.8" points="323.06,-801.74 332.31,-795.85 326.13,-797.06 328.21,-793.88 328.21,-793.88 328.21,-793.88 326.13,-797.06 324.78,-790.91 323.06,-801.74"/>
<text xml:space="preserve" text-anchor="middle" x="244.75" y="-923.21" font-family="Helvetica Neue" font-size="14.00"> </text>
<text xml:space="preserve" text-anchor="middle" x="233.16" y="-883.14" font-family="Helvetica Neue" font-size="14.00">HasMany</text>
<text xml:space="preserve" text-anchor="middle" x="233.16" y="-865.89" font-family="Helvetica Neue" font-size="14.00">pustaka</text>
</g>
<!-- appmodelsuser&#45;&gt;appmodelsbudaya -->
<g id="edge8" class="edge">
<title>appmodelsuser:user_id&#45;&gt;appmodelsbudaya:user_id</title>
<path fill="none" stroke="#fcbf49" stroke-width="1.8" d="M318.61,-1279.91C279.26,-1248.23 242.5,-1218.62 242.5,-1218.62 242.5,-1218.62 193.12,-1141.22 176.15,-1114.61"/>
<polygon fill="#fcbf49" stroke="#fcbf49" stroke-width="1.8" points="176.2,-1114.69 174.62,-1103.84 173.19,-1109.97 171.15,-1106.77 171.15,-1106.77 171.15,-1106.77 173.19,-1109.97 167.03,-1108.68 176.2,-1114.69"/>
<text xml:space="preserve" text-anchor="middle" x="244.75" y="-1225.07" font-family="Helvetica Neue" font-size="14.00"> </text>
<text xml:space="preserve" text-anchor="middle" x="207.85" y="-1194.51" font-family="Helvetica Neue" font-size="14.00">HasMany</text>
<text xml:space="preserve" text-anchor="middle" x="207.85" y="-1177.26" font-family="Helvetica Neue" font-size="14.00">budaya</text>
</g>
<!-- appmodelsuser&#45;&gt;appmodelsartikel -->
<g id="edge9" class="edge">
<title>appmodelsuser:user_id&#45;&gt;appmodelsartikel:user_id</title>
<path fill="none" stroke="#fcbf49" stroke-width="1.8" d="M508.58,-1281.8C576.64,-1228.32 656.75,-1165.38 656.75,-1165.38 656.75,-1165.38 909.78,-1135.53 965.14,-1129"/>
<polygon fill="#fcbf49" stroke="#fcbf49" stroke-width="1.8" points="965.22,-1128.99 975.68,-1132.29 970.78,-1128.34 974.55,-1127.89 974.55,-1127.89 974.55,-1127.89 970.78,-1128.34 974.62,-1123.35 965.22,-1128.99"/>
<text xml:space="preserve" text-anchor="middle" x="742" y="-1169.33" font-family="Helvetica Neue" font-size="14.00"> </text>
<text xml:space="preserve" text-anchor="middle" x="689.62" y="-1144.92" font-family="Helvetica Neue" font-size="14.00">HasMany</text>
<text xml:space="preserve" text-anchor="middle" x="689.62" y="-1127.67" font-family="Helvetica Neue" font-size="14.00">artikel</text>
</g>
<!-- appmodelscomment -->
<g id="node8" class="node">
<title>appmodelscomment</title>
<polygon fill="none" stroke="black" points="827.25,-1493 656.75,-1493 656.75,-1218.25 827.25,-1218.25 827.25,-1493"/>
<polygon fill="#d3d3d3" stroke="none" points="656.75,-1453.75 656.75,-1493 827.25,-1493 827.25,-1453.75 656.75,-1453.75"/>
<polygon fill="none" stroke="black" points="656.75,-1453.75 656.75,-1493 827.25,-1493 827.25,-1453.75 656.75,-1453.75"/>
<text xml:space="preserve" text-anchor="start" x="713.12" y="-1468.7" font-family="Helvetica Neue" font-size="14.00" fill="#333333">comment</text>
<polygon fill="#ffffff" stroke="none" points="656.75,-1414.5 656.75,-1453.75 827.25,-1453.75 827.25,-1414.5 656.75,-1414.5"/>
<polygon fill="none" stroke="black" points="656.75,-1414.5 656.75,-1453.75 827.25,-1453.75 827.25,-1414.5 656.75,-1414.5"/>
<text xml:space="preserve" text-anchor="start" x="667.75" y="-1429.45" font-family="Helvetica Neue" font-size="14.00" fill="#333333">id (bigint)</text>
<polygon fill="#ffffff" stroke="none" points="656.75,-1375.25 656.75,-1414.5 827.25,-1414.5 827.25,-1375.25 656.75,-1375.25"/>
<polygon fill="none" stroke="black" points="656.75,-1375.25 656.75,-1414.5 827.25,-1414.5 827.25,-1375.25 656.75,-1375.25"/>
<text xml:space="preserve" text-anchor="start" x="667.75" y="-1390.2" font-family="Helvetica Neue" font-size="14.00" fill="#333333">isi (text)</text>
<polygon fill="#ffffff" stroke="none" points="656.75,-1336 656.75,-1375.25 827.25,-1375.25 827.25,-1336 656.75,-1336"/>
<polygon fill="none" stroke="black" points="656.75,-1336 656.75,-1375.25 827.25,-1375.25 827.25,-1336 656.75,-1336"/>
<text xml:space="preserve" text-anchor="start" x="667.75" y="-1350.95" font-family="Helvetica Neue" font-size="14.00" fill="#333333">user_id (bigint)</text>
<polygon fill="#ffffff" stroke="none" points="656.75,-1296.75 656.75,-1336 827.25,-1336 827.25,-1296.75 656.75,-1296.75"/>
<polygon fill="none" stroke="black" points="656.75,-1296.75 656.75,-1336 827.25,-1336 827.25,-1296.75 656.75,-1296.75"/>
<text xml:space="preserve" text-anchor="start" x="667.75" y="-1311.7" font-family="Helvetica Neue" font-size="14.00" fill="#333333">artikel_id (bigint)</text>
<polygon fill="#ffffff" stroke="none" points="656.75,-1257.5 656.75,-1296.75 827.25,-1296.75 827.25,-1257.5 656.75,-1257.5"/>
<polygon fill="none" stroke="black" points="656.75,-1257.5 656.75,-1296.75 827.25,-1296.75 827.25,-1257.5 656.75,-1257.5"/>
<text xml:space="preserve" text-anchor="start" x="667.75" y="-1272.45" font-family="Helvetica Neue" font-size="14.00" fill="#333333">created_at (timestamp)</text>
<polygon fill="#ffffff" stroke="none" points="656.75,-1218.25 656.75,-1257.5 827.25,-1257.5 827.25,-1218.25 656.75,-1218.25"/>
<polygon fill="none" stroke="black" points="656.75,-1218.25 656.75,-1257.5 827.25,-1257.5 827.25,-1218.25 656.75,-1218.25"/>
<text xml:space="preserve" text-anchor="start" x="667.75" y="-1233.2" font-family="Helvetica Neue" font-size="14.00" fill="#333333">updated_at (timestamp)</text>
</g>
<!-- appmodelsuser&#45;&gt;appmodelscomment -->
<g id="edge10" class="edge">
<title>appmodelsuser:user_id&#45;&gt;appmodelscomment:user_id</title>
<path fill="none" stroke="#fcbf49" stroke-width="1.8" d="M508.57,-1324.85C545.95,-1312.61 580.25,-1301.38 580.25,-1301.38 580.25,-1301.38 584.75,-1301.38 584.75,-1301.38 584.75,-1301.38 629.14,-1334.82 648.21,-1349.19"/>
<polygon fill="#fcbf49" stroke="#fcbf49" stroke-width="1.8" points="648.28,-1349.24 653.56,-1358.86 652.76,-1352.62 655.79,-1354.9 655.79,-1354.9 655.79,-1354.9 652.76,-1352.62 658.98,-1351.67 648.28,-1349.24"/>
<text xml:space="preserve" text-anchor="middle" x="582.5" y="-1305.33" font-family="Helvetica Neue" font-size="14.00"> </text>
<text xml:space="preserve" text-anchor="middle" x="555.64" y="-1288.08" font-family="Helvetica Neue" font-size="14.00">HasMany</text>
<text xml:space="preserve" text-anchor="middle" x="555.64" y="-1270.83" font-family="Helvetica Neue" font-size="14.00">comment</text>
</g>
<!-- appmodelspustaka&#45;&gt;appmodelsbudaya -->
<g id="edge7" class="edge">
<title>appmodelspustaka:budaya_id&#45;&gt;appmodelsbudaya:budaya_id</title>
<path fill="none" stroke="#fcbf49" stroke-width="1.8" d="M328.88,-792.88C328.88,-792.88 247,-789.38 247,-789.38 247,-789.38 242.5,-789.38 242.5,-789.38 242.5,-789.38 211.31,-832.95 176.8,-881.15"/>
<polygon fill="#fcbf49" stroke="#fcbf49" stroke-width="1.8" points="176.72,-881.26 167.24,-886.77 173.46,-885.81 171.25,-888.9 171.25,-888.9 171.25,-888.9 173.46,-885.81 174.56,-892.01 176.72,-881.26"/>
<text xml:space="preserve" text-anchor="middle" x="244.75" y="-793.33" font-family="Helvetica Neue" font-size="14.00"> </text>
<text xml:space="preserve" text-anchor="middle" x="207.06" y="-786.82" font-family="Helvetica Neue" font-size="14.00">HasMany</text>
<text xml:space="preserve" text-anchor="middle" x="207.06" y="-769.57" font-family="Helvetica Neue" font-size="14.00">budaya</text>
</g>
<!-- appmodelsevent -->
<g id="node5" class="node">
<title>appmodelsevent</title>
<polygon fill="none" stroke="black" points="170.5,-353.25 0,-353.25 0,0 170.5,0 170.5,-353.25"/>
<polygon fill="#d3d3d3" stroke="none" points="0,-314 0,-353.25 170.5,-353.25 170.5,-314 0,-314"/>
<polygon fill="none" stroke="black" points="0,-314 0,-353.25 170.5,-353.25 170.5,-314 0,-314"/>
<text xml:space="preserve" text-anchor="start" x="68.38" y="-328.95" font-family="Helvetica Neue" font-size="14.00" fill="#333333">Event</text>
<polygon fill="#ffffff" stroke="none" points="0,-274.75 0,-314 170.5,-314 170.5,-274.75 0,-274.75"/>
<polygon fill="none" stroke="black" points="0,-274.75 0,-314 170.5,-314 170.5,-274.75 0,-274.75"/>
<text xml:space="preserve" text-anchor="start" x="11" y="-289.7" font-family="Helvetica Neue" font-size="14.00" fill="#333333">id (bigint)</text>
<polygon fill="#ffffff" stroke="none" points="0,-235.5 0,-274.75 170.5,-274.75 170.5,-235.5 0,-235.5"/>
<polygon fill="none" stroke="black" points="0,-235.5 0,-274.75 170.5,-274.75 170.5,-235.5 0,-235.5"/>
<text xml:space="preserve" text-anchor="start" x="11" y="-250.45" font-family="Helvetica Neue" font-size="14.00" fill="#333333">nama (varchar)</text>
<polygon fill="#ffffff" stroke="none" points="0,-196.25 0,-235.5 170.5,-235.5 170.5,-196.25 0,-196.25"/>
<polygon fill="none" stroke="black" points="0,-196.25 0,-235.5 170.5,-235.5 170.5,-196.25 0,-196.25"/>
<text xml:space="preserve" text-anchor="start" x="11" y="-211.2" font-family="Helvetica Neue" font-size="14.00" fill="#333333">deskripsi (varchar)</text>
<polygon fill="#ffffff" stroke="none" points="0,-157 0,-196.25 170.5,-196.25 170.5,-157 0,-157"/>
<polygon fill="none" stroke="black" points="0,-157 0,-196.25 170.5,-196.25 170.5,-157 0,-157"/>
<text xml:space="preserve" text-anchor="start" x="11" y="-171.95" font-family="Helvetica Neue" font-size="14.00" fill="#333333">jadwal (datetime)</text>
<polygon fill="#ffffff" stroke="none" points="0,-117.75 0,-157 170.5,-157 170.5,-117.75 0,-117.75"/>
<polygon fill="none" stroke="black" points="0,-117.75 0,-157 170.5,-157 170.5,-117.75 0,-117.75"/>
<text xml:space="preserve" text-anchor="start" x="11" y="-132.7" font-family="Helvetica Neue" font-size="14.00" fill="#333333">harga_tiket (double)</text>
<polygon fill="#ffffff" stroke="none" points="0,-78.5 0,-117.75 170.5,-117.75 170.5,-78.5 0,-78.5"/>
<polygon fill="none" stroke="black" points="0,-78.5 0,-117.75 170.5,-117.75 170.5,-78.5 0,-78.5"/>
<text xml:space="preserve" text-anchor="start" x="11" y="-93.45" font-family="Helvetica Neue" font-size="14.00" fill="#333333">lokasi_id (bigint)</text>
<polygon fill="#ffffff" stroke="none" points="0,-39.25 0,-78.5 170.5,-78.5 170.5,-39.25 0,-39.25"/>
<polygon fill="none" stroke="black" points="0,-39.25 0,-78.5 170.5,-78.5 170.5,-39.25 0,-39.25"/>
<text xml:space="preserve" text-anchor="start" x="11" y="-54.2" font-family="Helvetica Neue" font-size="14.00" fill="#333333">created_at (timestamp)</text>
<polygon fill="#ffffff" stroke="none" points="0,0 0,-39.25 170.5,-39.25 170.5,0 0,0"/>
<polygon fill="none" stroke="black" points="0,0 0,-39.25 170.5,-39.25 170.5,0 0,0"/>
<text xml:space="preserve" text-anchor="start" x="11" y="-14.95" font-family="Helvetica Neue" font-size="14.00" fill="#333333">updated_at (timestamp)</text>
</g>
<!-- appmodelslokasi -->
<g id="node6" class="node">
<title>appmodelslokasi</title>
<polygon fill="none" stroke="black" points="498.88,-353.38 328.38,-353.38 328.38,-117.88 498.88,-117.88 498.88,-353.38"/>
<polygon fill="#d3d3d3" stroke="none" points="328.38,-314.12 328.38,-353.38 498.88,-353.38 498.88,-314.12 328.38,-314.12"/>
<polygon fill="none" stroke="black" points="328.38,-314.12 328.38,-353.38 498.88,-353.38 498.88,-314.12 328.38,-314.12"/>
<text xml:space="preserve" text-anchor="start" x="394.88" y="-329.07" font-family="Helvetica Neue" font-size="14.00" fill="#333333">Lokasi</text>
<polygon fill="#ffffff" stroke="none" points="328.38,-274.88 328.38,-314.12 498.88,-314.12 498.88,-274.88 328.38,-274.88"/>
<polygon fill="none" stroke="black" points="328.38,-274.88 328.38,-314.12 498.88,-314.12 498.88,-274.88 328.38,-274.88"/>
<text xml:space="preserve" text-anchor="start" x="339.38" y="-289.82" font-family="Helvetica Neue" font-size="14.00" fill="#333333">id (bigint)</text>
<polygon fill="#ffffff" stroke="none" points="328.38,-235.62 328.38,-274.88 498.88,-274.88 498.88,-235.62 328.38,-235.62"/>
<polygon fill="none" stroke="black" points="328.38,-235.62 328.38,-274.88 498.88,-274.88 498.88,-235.62 328.38,-235.62"/>
<text xml:space="preserve" text-anchor="start" x="339.38" y="-250.57" font-family="Helvetica Neue" font-size="14.00" fill="#333333">nama (varchar)</text>
<polygon fill="#ffffff" stroke="none" points="328.38,-196.38 328.38,-235.62 498.88,-235.62 498.88,-196.38 328.38,-196.38"/>
<polygon fill="none" stroke="black" points="328.38,-196.38 328.38,-235.62 498.88,-235.62 498.88,-196.38 328.38,-196.38"/>
<text xml:space="preserve" text-anchor="start" x="339.38" y="-211.32" font-family="Helvetica Neue" font-size="14.00" fill="#333333">alamat (varchar)</text>
<polygon fill="#ffffff" stroke="none" points="328.38,-157.12 328.38,-196.38 498.88,-196.38 498.88,-157.12 328.38,-157.12"/>
<polygon fill="none" stroke="black" points="328.38,-157.12 328.38,-196.38 498.88,-196.38 498.88,-157.12 328.38,-157.12"/>
<text xml:space="preserve" text-anchor="start" x="339.38" y="-172.07" font-family="Helvetica Neue" font-size="14.00" fill="#333333">created_at (timestamp)</text>
<polygon fill="#ffffff" stroke="none" points="328.38,-117.88 328.38,-157.12 498.88,-157.12 498.88,-117.88 328.38,-117.88"/>
<polygon fill="none" stroke="black" points="328.38,-117.88 328.38,-157.12 498.88,-157.12 498.88,-117.88 328.38,-117.88"/>
<text xml:space="preserve" text-anchor="start" x="339.38" y="-132.82" font-family="Helvetica Neue" font-size="14.00" fill="#333333">updated_at (timestamp)</text>
</g>
<!-- appmodelsevent&#45;&gt;appmodelslokasi -->
<g id="edge4" class="edge">
<title>appmodelsevent:lokasi_id&#45;&gt;appmodelslokasi:lokasi_id</title>
<path fill="none" stroke="#fcbf49" stroke-width="1.8" d="M170.5,-98.12C170.5,-98.12 250.75,-143.7 318.85,-182.37"/>
<polygon fill="#fcbf49" stroke="#fcbf49" stroke-width="1.8" points="318.72,-182.3 325.2,-191.15 323.59,-185.07 326.89,-186.94 326.89,-186.94 326.89,-186.94 323.59,-185.07 329.64,-183.32 318.72,-182.3"/>
<text xml:space="preserve" text-anchor="middle" x="244.75" y="-144.62" font-family="Helvetica Neue" font-size="14.00"> </text>
<text xml:space="preserve" text-anchor="middle" x="216.93" y="-126.95" font-family="Helvetica Neue" font-size="14.00">HasMany</text>
<text xml:space="preserve" text-anchor="middle" x="216.93" y="-109.7" font-family="Helvetica Neue" font-size="14.00">lokasi</text>
</g>
<!-- appmodelsmakanan -->
<g id="node7" class="node">
<title>appmodelsmakanan</title>
<polygon fill="none" stroke="black" points="170.5,-739.62 0,-739.62 0,-425.62 170.5,-425.62 170.5,-739.62"/>
<polygon fill="#d3d3d3" stroke="none" points="0,-700.38 0,-739.62 170.5,-739.62 170.5,-700.38 0,-700.38"/>
<polygon fill="none" stroke="black" points="0,-700.38 0,-739.62 170.5,-739.62 170.5,-700.38 0,-700.38"/>
<text xml:space="preserve" text-anchor="start" x="57.88" y="-715.33" font-family="Helvetica Neue" font-size="14.00" fill="#333333">Makanan</text>
<polygon fill="#ffffff" stroke="none" points="0,-661.12 0,-700.38 170.5,-700.38 170.5,-661.12 0,-661.12"/>
<polygon fill="none" stroke="black" points="0,-661.12 0,-700.38 170.5,-700.38 170.5,-661.12 0,-661.12"/>
<text xml:space="preserve" text-anchor="start" x="11" y="-676.08" font-family="Helvetica Neue" font-size="14.00" fill="#333333">id (bigint)</text>
<polygon fill="#ffffff" stroke="none" points="0,-621.88 0,-661.12 170.5,-661.12 170.5,-621.88 0,-621.88"/>
<polygon fill="none" stroke="black" points="0,-621.88 0,-661.12 170.5,-661.12 170.5,-621.88 0,-621.88"/>
<text xml:space="preserve" text-anchor="start" x="11" y="-636.83" font-family="Helvetica Neue" font-size="14.00" fill="#333333">nama (varchar)</text>
<polygon fill="#ffffff" stroke="none" points="0,-582.62 0,-621.88 170.5,-621.88 170.5,-582.62 0,-582.62"/>
<polygon fill="none" stroke="black" points="0,-582.62 0,-621.88 170.5,-621.88 170.5,-582.62 0,-582.62"/>
<text xml:space="preserve" text-anchor="start" x="11" y="-597.58" font-family="Helvetica Neue" font-size="14.00" fill="#333333">deskripsi (varchar)</text>
<polygon fill="#ffffff" stroke="none" points="0,-543.38 0,-582.62 170.5,-582.62 170.5,-543.38 0,-543.38"/>
<polygon fill="none" stroke="black" points="0,-543.38 0,-582.62 170.5,-582.62 170.5,-543.38 0,-543.38"/>
<text xml:space="preserve" text-anchor="start" x="11" y="-558.33" font-family="Helvetica Neue" font-size="14.00" fill="#333333">lokasi_id (bigint)</text>
<polygon fill="#ffffff" stroke="none" points="0,-504.12 0,-543.38 170.5,-543.38 170.5,-504.12 0,-504.12"/>
<polygon fill="none" stroke="black" points="0,-504.12 0,-543.38 170.5,-543.38 170.5,-504.12 0,-504.12"/>
<text xml:space="preserve" text-anchor="start" x="11" y="-519.08" font-family="Helvetica Neue" font-size="14.00" fill="#333333">user_id (bigint)</text>
<polygon fill="#ffffff" stroke="none" points="0,-464.88 0,-504.12 170.5,-504.12 170.5,-464.88 0,-464.88"/>
<polygon fill="none" stroke="black" points="0,-464.88 0,-504.12 170.5,-504.12 170.5,-464.88 0,-464.88"/>
<text xml:space="preserve" text-anchor="start" x="11" y="-479.82" font-family="Helvetica Neue" font-size="14.00" fill="#333333">created_at (timestamp)</text>
<polygon fill="#ffffff" stroke="none" points="0,-425.62 0,-464.88 170.5,-464.88 170.5,-425.62 0,-425.62"/>
<polygon fill="none" stroke="black" points="0,-425.62 0,-464.88 170.5,-464.88 170.5,-425.62 0,-425.62"/>
<text xml:space="preserve" text-anchor="start" x="11" y="-440.57" font-family="Helvetica Neue" font-size="14.00" fill="#333333">updated_at (timestamp)</text>
</g>
<!-- appmodelsmakanan&#45;&gt;appmodelsuser -->
<g id="edge5" class="edge">
<title>appmodelsmakanan:user_id&#45;&gt;appmodelsuser:user_id</title>
<path fill="none" stroke="#fcbf49" stroke-width="1.8" d="M170.5,-523.75C170.5,-523.75 242.5,-820.62 242.5,-820.62 242.5,-820.62 319,-1123.62 319,-1123.62 319,-1123.62 322.99,-1133.52 329.33,-1149.23"/>
<polygon fill="#fcbf49" stroke="#fcbf49" stroke-width="1.8" points="329.35,-1149.28 328.92,-1160.24 331.45,-1154.48 332.87,-1158 332.87,-1158 332.87,-1158 331.45,-1154.48 337.27,-1156.87 329.35,-1149.28"/>
<text xml:space="preserve" text-anchor="middle" x="244.75" y="-840.73" font-family="Helvetica Neue" font-size="14.00"> </text>
<text xml:space="preserve" text-anchor="middle" x="274.49" y="-824.12" font-family="Helvetica Neue" font-size="14.00">HasMany</text>
<text xml:space="preserve" text-anchor="middle" x="274.49" y="-806.87" font-family="Helvetica Neue" font-size="14.00">user</text>
</g>
<!-- appmodelsmakanan&#45;&gt;appmodelslokasi -->
<g id="edge6" class="edge">
<title>appmodelsmakanan:lokasi_id&#45;&gt;appmodelslokasi:lokasi</title>
<path fill="none" stroke="#fcbf49" stroke-width="1.8" d="M170.5,-563C170.5,-563 252.89,-451.59 321.55,-358.76"/>
<polygon fill="#fcbf49" stroke="#fcbf49" stroke-width="1.8" points="321.64,-358.65 331.2,-353.28 324.97,-354.14 327.23,-351.09 327.23,-351.09 327.23,-351.09 324.97,-354.14 323.97,-347.93 321.64,-358.65"/>
<text xml:space="preserve" text-anchor="middle" x="244.75" y="-465.66" font-family="Helvetica Neue" font-size="14.00"> </text>
<text xml:space="preserve" text-anchor="middle" x="218.28" y="-447.58" font-family="Helvetica Neue" font-size="14.00">HasMany</text>
<text xml:space="preserve" text-anchor="middle" x="218.28" y="-430.33" font-family="Helvetica Neue" font-size="14.00">lokasi</text>
</g>
<!-- appmodelscomment&#45;&gt;appmodelsuser -->
<g id="edge12" class="edge">
<title>appmodelscomment:user_id&#45;&gt;appmodelsuser:user_id</title>
<path fill="none" stroke="#f77f00" stroke-width="1.8" d="M645.98,-1355.62C622.62,-1355.62 565.18,-1355.62 513.39,-1355.62"/>
<polygon fill="#f77f00" stroke="#f77f00" stroke-width="1.8" points="646.15,-1355.63 656.15,-1360.13 651.75,-1355.63 655.55,-1355.63 655.55,-1355.63 655.55,-1355.63 651.75,-1355.63 656.15,-1351.13 646.15,-1355.63"/>
<polygon fill="#f77f00" stroke="#f77f00" stroke-width="1.8" points="509.58,-1360.63 509.58,-1350.63 511.58,-1350.63 511.58,-1360.63 509.58,-1360.63"/>
<polyline fill="none" stroke="#f77f00" stroke-width="1.8" points="508.58,-1355.62 513.58,-1355.63"/>
<text xml:space="preserve" text-anchor="middle" x="582.5" y="-1359.58" font-family="Helvetica Neue" font-size="14.00"> </text>
<text xml:space="preserve" text-anchor="middle" x="548.94" y="-1342.33" font-family="Helvetica Neue" font-size="14.00">BelongsTo</text>
<text xml:space="preserve" text-anchor="middle" x="548.94" y="-1325.08" font-family="Helvetica Neue" font-size="14.00">user</text>
</g>
<!-- appmodelscomment&#45;&gt;appmodelsartikel -->
<g id="edge11" class="edge">
<title>appmodelscomment:artikel_id&#45;&gt;appmodelsartikel:artikel_id</title>
<path fill="none" stroke="#f77f00" stroke-width="1.8" d="M836.53,-1311.2C859.16,-1298.59 919.13,-1265.15 971.26,-1236.1"/>
<polygon fill="#f77f00" stroke="#f77f00" stroke-width="1.8" points="836.51,-1311.21 825.58,-1312.15 831.62,-1313.94 828.3,-1315.79 828.3,-1315.79 828.3,-1315.79 831.62,-1313.94 829.97,-1320.01 836.51,-1311.21"/>
<polygon fill="#f77f00" stroke="#f77f00" stroke-width="1.8" points="972.01,-1229.95 976.87,-1238.69 975.13,-1239.66 970.26,-1230.93 972.01,-1229.95"/>
<polyline fill="none" stroke="#f77f00" stroke-width="1.8" points="975.31,-1233.83 970.95,-1236.27"/>
<text xml:space="preserve" text-anchor="middle" x="901.5" y="-1278.36" font-family="Helvetica Neue" font-size="14.00"> </text>
<text xml:space="preserve" text-anchor="middle" x="873.14" y="-1260.35" font-family="Helvetica Neue" font-size="14.00">BelongsTo</text>
<text xml:space="preserve" text-anchor="middle" x="873.14" y="-1243.1" font-family="Helvetica Neue" font-size="14.00">artikel</text>
</g>
</g>
</svg>
