<?xml version="1.0" encoding="UTF-8" standalone="no"?>
<!DOCTYPE svg PUBLIC "-//W3C//DTD SVG 1.1//EN"
 "http://www.w3.org/Graphics/SVG/1.1/DTD/svg11.dtd">
<!-- Generated by graphviz version 13.1.2 (20250808.2320)
 -->
<!-- Title: G Pages: 1 -->
<svg width="1218pt" height="1642pt"
 viewBox="0.00 0.00 1218.00 1642.00" xmlns="http://www.w3.org/2000/svg" xmlns:xlink="http://www.w3.org/1999/xlink">
<g id="graph0" class="graph" transform="scale(1 1) rotate(0) translate(36 1605.5)">
<title>G</title>
<polygon fill="#f7f7f7" stroke="none" points="-36,36 -36,-1605.5 1182.25,-1605.5 1182.25,36 -36,36"/>
<!-- appmodelsartikel -->
<g id="node1" class="node">
<title>appmodelsartikel</title>
<polygon fill="none" stroke="black" points="170.5,-1569.5 0,-1569.5 0,-1137.75 170.5,-1137.75 170.5,-1569.5"/>
<polygon fill="#d3d3d3" stroke="none" points="0,-1530.25 0,-1569.5 170.5,-1569.5 170.5,-1530.25 0,-1530.25"/>
<polygon fill="none" stroke="black" points="0,-1530.25 0,-1569.5 170.5,-1569.5 170.5,-1530.25 0,-1530.25"/>
<text xml:space="preserve" text-anchor="start" x="66.12" y="-1545.2" font-family="Helvetica Neue" font-size="14.00" fill="#333333">Artikel</text>
<polygon fill="#ffffff" stroke="none" points="0,-1491 0,-1530.25 170.5,-1530.25 170.5,-1491 0,-1491"/>
<polygon fill="none" stroke="black" points="0,-1491 0,-1530.25 170.5,-1530.25 170.5,-1491 0,-1491"/>
<text xml:space="preserve" text-anchor="start" x="11" y="-1505.95" font-family="Helvetica Neue" font-size="14.00" fill="#333333">artikel_id (bigint)</text>
<polygon fill="#ffffff" stroke="none" points="0,-1451.75 0,-1491 170.5,-1491 170.5,-1451.75 0,-1451.75"/>
<polygon fill="none" stroke="black" points="0,-1451.75 0,-1491 170.5,-1491 170.5,-1451.75 0,-1451.75"/>
<text xml:space="preserve" text-anchor="start" x="11" y="-1466.7" font-family="Helvetica Neue" font-size="14.00" fill="#333333">judul (varchar)</text>
<polygon fill="#ffffff" stroke="none" points="0,-1412.5 0,-1451.75 170.5,-1451.75 170.5,-1412.5 0,-1412.5"/>
<polygon fill="none" stroke="black" points="0,-1412.5 0,-1451.75 170.5,-1451.75 170.5,-1412.5 0,-1412.5"/>
<text xml:space="preserve" text-anchor="start" x="11" y="-1427.45" font-family="Helvetica Neue" font-size="14.00" fill="#333333">deskripsi (text)</text>
<polygon fill="#ffffff" stroke="none" points="0,-1373.25 0,-1412.5 170.5,-1412.5 170.5,-1373.25 0,-1373.25"/>
<polygon fill="none" stroke="black" points="0,-1373.25 0,-1412.5 170.5,-1412.5 170.5,-1373.25 0,-1373.25"/>
<text xml:space="preserve" text-anchor="start" x="11" y="-1388.2" font-family="Helvetica Neue" font-size="14.00" fill="#333333">penulis (varchar)</text>
<polygon fill="#ffffff" stroke="none" points="0,-1334 0,-1373.25 170.5,-1373.25 170.5,-1334 0,-1334"/>
<polygon fill="none" stroke="black" points="0,-1334 0,-1373.25 170.5,-1373.25 170.5,-1334 0,-1334"/>
<text xml:space="preserve" text-anchor="start" x="11" y="-1348.95" font-family="Helvetica Neue" font-size="14.00" fill="#333333">topic (varchar)</text>
<polygon fill="#ffffff" stroke="none" points="0,-1294.75 0,-1334 170.5,-1334 170.5,-1294.75 0,-1294.75"/>
<polygon fill="none" stroke="black" points="0,-1294.75 0,-1334 170.5,-1334 170.5,-1294.75 0,-1294.75"/>
<text xml:space="preserve" text-anchor="start" x="11" y="-1309.7" font-family="Helvetica Neue" font-size="14.00" fill="#333333">user_id (bigint)</text>
<polygon fill="#ffffff" stroke="none" points="0,-1255.5 0,-1294.75 170.5,-1294.75 170.5,-1255.5 0,-1255.5"/>
<polygon fill="none" stroke="black" points="0,-1255.5 0,-1294.75 170.5,-1294.75 170.5,-1255.5 0,-1255.5"/>
<text xml:space="preserve" text-anchor="start" x="11" y="-1270.45" font-family="Helvetica Neue" font-size="14.00" fill="#333333">budaya_id (bigint)</text>
<polygon fill="#ffffff" stroke="none" points="0,-1216.25 0,-1255.5 170.5,-1255.5 170.5,-1216.25 0,-1216.25"/>
<polygon fill="none" stroke="black" points="0,-1216.25 0,-1255.5 170.5,-1255.5 170.5,-1216.25 0,-1216.25"/>
<text xml:space="preserve" text-anchor="start" x="11" y="-1231.2" font-family="Helvetica Neue" font-size="14.00" fill="#333333">gambar (varchar)</text>
<polygon fill="#ffffff" stroke="none" points="0,-1177 0,-1216.25 170.5,-1216.25 170.5,-1177 0,-1177"/>
<polygon fill="none" stroke="black" points="0,-1177 0,-1216.25 170.5,-1216.25 170.5,-1177 0,-1177"/>
<text xml:space="preserve" text-anchor="start" x="11" y="-1191.95" font-family="Helvetica Neue" font-size="14.00" fill="#333333">created_at (timestamp)</text>
<polygon fill="#ffffff" stroke="none" points="0,-1137.75 0,-1177 170.5,-1177 170.5,-1137.75 0,-1137.75"/>
<polygon fill="none" stroke="black" points="0,-1137.75 0,-1177 170.5,-1177 170.5,-1137.75 0,-1137.75"/>
<text xml:space="preserve" text-anchor="start" x="11" y="-1152.7" font-family="Helvetica Neue" font-size="14.00" fill="#333333">updated_at (timestamp)</text>
</g>
<!-- appmodelsbudaya -->
<g id="node2" class="node">
<title>appmodelsbudaya</title>
<polygon fill="none" stroke="black" points="489.5,-1365.88 319,-1365.88 319,-973.38 489.5,-973.38 489.5,-1365.88"/>
<polygon fill="#d3d3d3" stroke="none" points="319,-1326.62 319,-1365.88 489.5,-1365.88 489.5,-1326.62 319,-1326.62"/>
<polygon fill="none" stroke="black" points="319,-1326.62 319,-1365.88 489.5,-1365.88 489.5,-1326.62 319,-1326.62"/>
<text xml:space="preserve" text-anchor="start" x="381.75" y="-1341.58" font-family="Helvetica Neue" font-size="14.00" fill="#333333">Budaya</text>
<polygon fill="#ffffff" stroke="none" points="319,-1287.38 319,-1326.62 489.5,-1326.62 489.5,-1287.38 319,-1287.38"/>
<polygon fill="none" stroke="black" points="319,-1287.38 319,-1326.62 489.5,-1326.62 489.5,-1287.38 319,-1287.38"/>
<text xml:space="preserve" text-anchor="start" x="330" y="-1302.33" font-family="Helvetica Neue" font-size="14.00" fill="#333333">budaya_id (bigint)</text>
<polygon fill="#ffffff" stroke="none" points="319,-1248.12 319,-1287.38 489.5,-1287.38 489.5,-1248.12 319,-1248.12"/>
<polygon fill="none" stroke="black" points="319,-1248.12 319,-1287.38 489.5,-1287.38 489.5,-1248.12 319,-1248.12"/>
<text xml:space="preserve" text-anchor="start" x="330" y="-1263.08" font-family="Helvetica Neue" font-size="14.00" fill="#333333">user_id (bigint)</text>
<polygon fill="#ffffff" stroke="none" points="319,-1208.88 319,-1248.12 489.5,-1248.12 489.5,-1208.88 319,-1208.88"/>
<polygon fill="none" stroke="black" points="319,-1208.88 319,-1248.12 489.5,-1248.12 489.5,-1208.88 319,-1208.88"/>
<text xml:space="preserve" text-anchor="start" x="330" y="-1223.83" font-family="Helvetica Neue" font-size="14.00" fill="#333333">name (varchar)</text>
<polygon fill="#ffffff" stroke="none" points="319,-1169.62 319,-1208.88 489.5,-1208.88 489.5,-1169.62 319,-1169.62"/>
<polygon fill="none" stroke="black" points="319,-1169.62 319,-1208.88 489.5,-1208.88 489.5,-1169.62 319,-1169.62"/>
<text xml:space="preserve" text-anchor="start" x="330" y="-1184.58" font-family="Helvetica Neue" font-size="14.00" fill="#333333">jenis (varchar)</text>
<polygon fill="#ffffff" stroke="none" points="319,-1130.38 319,-1169.62 489.5,-1169.62 489.5,-1130.38 319,-1130.38"/>
<polygon fill="none" stroke="black" points="319,-1130.38 319,-1169.62 489.5,-1169.62 489.5,-1130.38 319,-1130.38"/>
<text xml:space="preserve" text-anchor="start" x="330" y="-1145.33" font-family="Helvetica Neue" font-size="14.00" fill="#333333">deskripsi (text)</text>
<polygon fill="#ffffff" stroke="none" points="319,-1091.12 319,-1130.38 489.5,-1130.38 489.5,-1091.12 319,-1091.12"/>
<polygon fill="none" stroke="black" points="319,-1091.12 319,-1130.38 489.5,-1130.38 489.5,-1091.12 319,-1091.12"/>
<text xml:space="preserve" text-anchor="start" x="330" y="-1106.08" font-family="Helvetica Neue" font-size="14.00" fill="#333333">asal_daerah (varchar)</text>
<polygon fill="#ffffff" stroke="none" points="319,-1051.88 319,-1091.12 489.5,-1091.12 489.5,-1051.88 319,-1051.88"/>
<polygon fill="none" stroke="black" points="319,-1051.88 319,-1091.12 489.5,-1091.12 489.5,-1051.88 319,-1051.88"/>
<text xml:space="preserve" text-anchor="start" x="330" y="-1066.83" font-family="Helvetica Neue" font-size="14.00" fill="#333333">status (enum)</text>
<polygon fill="#ffffff" stroke="none" points="319,-1012.62 319,-1051.88 489.5,-1051.88 489.5,-1012.62 319,-1012.62"/>
<polygon fill="none" stroke="black" points="319,-1012.62 319,-1051.88 489.5,-1051.88 489.5,-1012.62 319,-1012.62"/>
<text xml:space="preserve" text-anchor="start" x="330" y="-1027.58" font-family="Helvetica Neue" font-size="14.00" fill="#333333">created_at (timestamp)</text>
<polygon fill="#ffffff" stroke="none" points="319,-973.38 319,-1012.62 489.5,-1012.62 489.5,-973.38 319,-973.38"/>
<polygon fill="none" stroke="black" points="319,-973.38 319,-1012.62 489.5,-1012.62 489.5,-973.38 319,-973.38"/>
<text xml:space="preserve" text-anchor="start" x="330" y="-988.33" font-family="Helvetica Neue" font-size="14.00" fill="#333333">updated_at (timestamp)</text>
</g>
<!-- appmodelsartikel&#45;&gt;appmodelsbudaya -->
<g id="edge1" class="edge">
<title>appmodelsartikel:budaya_id&#45;&gt;appmodelsbudaya:budaya_id</title>
<path fill="none" stroke="#fcbf49" stroke-width="1.8" d="M170.5,-1275.12C170.5,-1275.12 242.5,-1226.38 242.5,-1226.38 242.5,-1226.38 247,-1226.38 247,-1226.38 247,-1226.38 293.62,-1278.58 311.83,-1298.97"/>
<polygon fill="#fcbf49" stroke="#fcbf49" stroke-width="1.8" points="311.94,-1299.09 315.24,-1309.55 315.67,-1303.27 318.2,-1306.1 318.2,-1306.1 318.2,-1306.1 315.67,-1303.27 321.96,-1303.55 311.94,-1299.09"/>
<text xml:space="preserve" text-anchor="middle" x="244.75" y="-1230.33" font-family="Helvetica Neue" font-size="14.00"> </text>
<text xml:space="preserve" text-anchor="middle" x="276.71" y="-1215.27" font-family="Helvetica Neue" font-size="14.00">HasMany</text>
<text xml:space="preserve" text-anchor="middle" x="276.71" y="-1198.02" font-family="Helvetica Neue" font-size="14.00">budaya</text>
</g>
<!-- appmodelsuser -->
<g id="node3" class="node">
<title>appmodelsuser</title>
<polygon fill="none" stroke="black" points="827.25,-950.88 638,-950.88 638,-558.38 827.25,-558.38 827.25,-950.88"/>
<polygon fill="#d3d3d3" stroke="none" points="638,-911.62 638,-950.88 827.25,-950.88 827.25,-911.62 638,-911.62"/>
<polygon fill="none" stroke="black" points="638,-911.62 638,-950.88 827.25,-950.88 827.25,-911.62 638,-911.62"/>
<text xml:space="preserve" text-anchor="start" x="718.75" y="-926.58" font-family="Helvetica Neue" font-size="14.00" fill="#333333">User</text>
<polygon fill="#ffffff" stroke="none" points="638,-872.38 638,-911.62 827.25,-911.62 827.25,-872.38 638,-872.38"/>
<polygon fill="none" stroke="black" points="638,-872.38 638,-911.62 827.25,-911.62 827.25,-872.38 638,-872.38"/>
<text xml:space="preserve" text-anchor="start" x="649" y="-887.33" font-family="Helvetica Neue" font-size="14.00" fill="#333333">user_id (bigint)</text>
<polygon fill="#ffffff" stroke="none" points="638,-833.12 638,-872.38 827.25,-872.38 827.25,-833.12 638,-833.12"/>
<polygon fill="none" stroke="black" points="638,-833.12 638,-872.38 827.25,-872.38 827.25,-833.12 638,-833.12"/>
<text xml:space="preserve" text-anchor="start" x="649" y="-848.08" font-family="Helvetica Neue" font-size="14.00" fill="#333333">name (varchar)</text>
<polygon fill="#ffffff" stroke="none" points="638,-793.88 638,-833.12 827.25,-833.12 827.25,-793.88 638,-793.88"/>
<polygon fill="none" stroke="black" points="638,-793.88 638,-833.12 827.25,-833.12 827.25,-793.88 638,-793.88"/>
<text xml:space="preserve" text-anchor="start" x="649" y="-808.83" font-family="Helvetica Neue" font-size="14.00" fill="#333333">email (varchar)</text>
<polygon fill="#ffffff" stroke="none" points="638,-754.62 638,-793.88 827.25,-793.88 827.25,-754.62 638,-754.62"/>
<polygon fill="none" stroke="black" points="638,-754.62 638,-793.88 827.25,-793.88 827.25,-754.62 638,-754.62"/>
<text xml:space="preserve" text-anchor="start" x="649" y="-769.58" font-family="Helvetica Neue" font-size="14.00" fill="#333333">role (enum)</text>
<polygon fill="#ffffff" stroke="none" points="638,-715.38 638,-754.62 827.25,-754.62 827.25,-715.38 638,-715.38"/>
<polygon fill="none" stroke="black" points="638,-715.38 638,-754.62 827.25,-754.62 827.25,-715.38 638,-715.38"/>
<text xml:space="preserve" text-anchor="start" x="649" y="-730.33" font-family="Helvetica Neue" font-size="14.00" fill="#333333">foto (varchar)</text>
<polygon fill="#ffffff" stroke="none" points="638,-676.12 638,-715.38 827.25,-715.38 827.25,-676.12 638,-676.12"/>
<polygon fill="none" stroke="black" points="638,-676.12 638,-715.38 827.25,-715.38 827.25,-676.12 638,-676.12"/>
<text xml:space="preserve" text-anchor="start" x="649" y="-691.08" font-family="Helvetica Neue" font-size="14.00" fill="#333333">password (varchar)</text>
<polygon fill="#ffffff" stroke="none" points="638,-636.88 638,-676.12 827.25,-676.12 827.25,-636.88 638,-636.88"/>
<polygon fill="none" stroke="black" points="638,-636.88 638,-676.12 827.25,-676.12 827.25,-636.88 638,-636.88"/>
<text xml:space="preserve" text-anchor="start" x="649" y="-651.83" font-family="Helvetica Neue" font-size="14.00" fill="#333333">remember_token (varchar)</text>
<polygon fill="#ffffff" stroke="none" points="638,-597.62 638,-636.88 827.25,-636.88 827.25,-597.62 638,-597.62"/>
<polygon fill="none" stroke="black" points="638,-597.62 638,-636.88 827.25,-636.88 827.25,-597.62 638,-597.62"/>
<text xml:space="preserve" text-anchor="start" x="649" y="-612.58" font-family="Helvetica Neue" font-size="14.00" fill="#333333">created_at (timestamp)</text>
<polygon fill="#ffffff" stroke="none" points="638,-558.38 638,-597.62 827.25,-597.62 827.25,-558.38 638,-558.38"/>
<polygon fill="none" stroke="black" points="638,-558.38 638,-597.62 827.25,-597.62 827.25,-558.38 638,-558.38"/>
<text xml:space="preserve" text-anchor="start" x="649" y="-573.33" font-family="Helvetica Neue" font-size="14.00" fill="#333333">updated_at (timestamp)</text>
</g>
<!-- appmodelsartikel&#45;&gt;appmodelsuser -->
<g id="edge2" class="edge">
<title>appmodelsartikel:user_id&#45;&gt;appmodelsuser:user_id</title>
<path fill="none" stroke="#fcbf49" stroke-width="1.8" d="M170.5,-1314.38C170.5,-1314.38 319,-920.38 319,-920.38 319,-920.38 572.03,-897.87 627.39,-892.94"/>
<polygon fill="#fcbf49" stroke="#fcbf49" stroke-width="1.8" points="627.44,-892.94 637.8,-896.54 633.02,-892.44 636.8,-892.11 636.8,-892.11 636.8,-892.11 633.02,-892.44 637,-887.57 627.44,-892.94"/>
<text xml:space="preserve" text-anchor="middle" x="404.25" y="-924.33" font-family="Helvetica Neue" font-size="14.00"> </text>
<text xml:space="preserve" text-anchor="middle" x="271.6" y="-959.22" font-family="Helvetica Neue" font-size="14.00">HasMany</text>
<text xml:space="preserve" text-anchor="middle" x="271.6" y="-941.97" font-family="Helvetica Neue" font-size="14.00">user</text>
</g>
<!-- appmodelsbudaya&#45;&gt;appmodelsartikel -->
<g id="edge4" class="edge">
<title>appmodelsbudaya:budaya_id&#45;&gt;appmodelsartikel:budaya_id</title>
<path fill="none" stroke="#fcbf49" stroke-width="1.8" d="M319,-1307C319,-1307 214.26,-1284.52 180.71,-1277.32"/>
<polygon fill="#fcbf49" stroke="#fcbf49" stroke-width="1.8" points="180.87,-1277.35 172.03,-1270.85 175.39,-1276.17 171.68,-1275.38 171.68,-1275.38 171.68,-1275.38 175.39,-1276.17 170.14,-1279.65 180.87,-1277.35"/>
<text xml:space="preserve" text-anchor="middle" x="244.75" y="-1295.01" font-family="Helvetica Neue" font-size="14.00"> </text>
<text xml:space="preserve" text-anchor="middle" x="277.6" y="-1278.86" font-family="Helvetica Neue" font-size="14.00">HasMany</text>
<text xml:space="preserve" text-anchor="middle" x="277.6" y="-1261.61" font-family="Helvetica Neue" font-size="14.00">artikel</text>
</g>
<!-- appmodelsbudaya&#45;&gt;appmodelsuser -->
<g id="edge3" class="edge">
<title>appmodelsbudaya:user_id&#45;&gt;appmodelsuser:user_id</title>
<path fill="none" stroke="#f77f00" stroke-width="1.8" d="M493.32,-1258.08C514.93,-1203.41 621.41,-933.98 636.28,-896.36"/>
<polygon fill="#f77f00" stroke="#f77f00" stroke-width="1.8" points="493.4,-1257.89 485.54,-1265.54 491.34,-1263.1 489.94,-1266.63 489.94,-1266.63 489.94,-1266.63 491.34,-1263.1 493.91,-1268.84 493.4,-1257.89"/>
<polygon fill="#f77f00" stroke="#f77f00" stroke-width="1.8" points="632.98,-891.09 642.28,-894.77 641.55,-896.63 632.25,-892.95 632.98,-891.09"/>
<polyline fill="none" stroke="#f77f00" stroke-width="1.8" points="638,-892 636.16,-896.65"/>
<text xml:space="preserve" text-anchor="middle" x="563.75" y="-1083.83" font-family="Helvetica Neue" font-size="14.00"> </text>
<text xml:space="preserve" text-anchor="middle" x="534.05" y="-1063.92" font-family="Helvetica Neue" font-size="14.00">BelongsTo</text>
<text xml:space="preserve" text-anchor="middle" x="534.05" y="-1046.67" font-family="Helvetica Neue" font-size="14.00">user</text>
</g>
<!-- appmodelspustaka -->
<g id="node4" class="node">
<title>appmodelspustaka</title>
<polygon fill="none" stroke="black" points="817.88,-1431.88 647.38,-1431.88 647.38,-1039.38 817.88,-1039.38 817.88,-1431.88"/>
<polygon fill="#d3d3d3" stroke="none" points="647.38,-1392.62 647.38,-1431.88 817.88,-1431.88 817.88,-1392.62 647.38,-1392.62"/>
<polygon fill="none" stroke="black" points="647.38,-1392.62 647.38,-1431.88 817.88,-1431.88 817.88,-1392.62 647.38,-1392.62"/>
<text xml:space="preserve" text-anchor="start" x="709" y="-1407.58" font-family="Helvetica Neue" font-size="14.00" fill="#333333">Pustaka</text>
<polygon fill="#ffffff" stroke="none" points="647.38,-1353.38 647.38,-1392.62 817.88,-1392.62 817.88,-1353.38 647.38,-1353.38"/>
<polygon fill="none" stroke="black" points="647.38,-1353.38 647.38,-1392.62 817.88,-1392.62 817.88,-1353.38 647.38,-1353.38"/>
<text xml:space="preserve" text-anchor="start" x="658.38" y="-1368.33" font-family="Helvetica Neue" font-size="14.00" fill="#333333">pustaka_id (bigint)</text>
<polygon fill="#ffffff" stroke="none" points="647.38,-1314.12 647.38,-1353.38 817.88,-1353.38 817.88,-1314.12 647.38,-1314.12"/>
<polygon fill="none" stroke="black" points="647.38,-1314.12 647.38,-1353.38 817.88,-1353.38 817.88,-1314.12 647.38,-1314.12"/>
<text xml:space="preserve" text-anchor="start" x="658.38" y="-1329.08" font-family="Helvetica Neue" font-size="14.00" fill="#333333">judul (varchar)</text>
<polygon fill="#ffffff" stroke="none" points="647.38,-1274.88 647.38,-1314.12 817.88,-1314.12 817.88,-1274.88 647.38,-1274.88"/>
<polygon fill="none" stroke="black" points="647.38,-1274.88 647.38,-1314.12 817.88,-1314.12 817.88,-1274.88 647.38,-1274.88"/>
<text xml:space="preserve" text-anchor="start" x="658.38" y="-1289.83" font-family="Helvetica Neue" font-size="14.00" fill="#333333">author (varchar)</text>
<polygon fill="#ffffff" stroke="none" points="647.38,-1235.62 647.38,-1274.88 817.88,-1274.88 817.88,-1235.62 647.38,-1235.62"/>
<polygon fill="none" stroke="black" points="647.38,-1235.62 647.38,-1274.88 817.88,-1274.88 817.88,-1235.62 647.38,-1235.62"/>
<text xml:space="preserve" text-anchor="start" x="658.38" y="-1250.58" font-family="Helvetica Neue" font-size="14.00" fill="#333333">tema (varchar)</text>
<polygon fill="#ffffff" stroke="none" points="647.38,-1196.38 647.38,-1235.62 817.88,-1235.62 817.88,-1196.38 647.38,-1196.38"/>
<polygon fill="none" stroke="black" points="647.38,-1196.38 647.38,-1235.62 817.88,-1235.62 817.88,-1196.38 647.38,-1196.38"/>
<text xml:space="preserve" text-anchor="start" x="658.38" y="-1211.33" font-family="Helvetica Neue" font-size="14.00" fill="#333333">sinopsis (text)</text>
<polygon fill="#ffffff" stroke="none" points="647.38,-1157.12 647.38,-1196.38 817.88,-1196.38 817.88,-1157.12 647.38,-1157.12"/>
<polygon fill="none" stroke="black" points="647.38,-1157.12 647.38,-1196.38 817.88,-1196.38 817.88,-1157.12 647.38,-1157.12"/>
<text xml:space="preserve" text-anchor="start" x="658.38" y="-1172.08" font-family="Helvetica Neue" font-size="14.00" fill="#333333">tahun_terbit (date)</text>
<polygon fill="#ffffff" stroke="none" points="647.38,-1117.88 647.38,-1157.12 817.88,-1157.12 817.88,-1117.88 647.38,-1117.88"/>
<polygon fill="none" stroke="black" points="647.38,-1117.88 647.38,-1157.12 817.88,-1157.12 817.88,-1117.88 647.38,-1117.88"/>
<text xml:space="preserve" text-anchor="start" x="658.38" y="-1132.83" font-family="Helvetica Neue" font-size="14.00" fill="#333333">budaya_id (bigint)</text>
<polygon fill="#ffffff" stroke="none" points="647.38,-1078.62 647.38,-1117.88 817.88,-1117.88 817.88,-1078.62 647.38,-1078.62"/>
<polygon fill="none" stroke="black" points="647.38,-1078.62 647.38,-1117.88 817.88,-1117.88 817.88,-1078.62 647.38,-1078.62"/>
<text xml:space="preserve" text-anchor="start" x="658.38" y="-1093.58" font-family="Helvetica Neue" font-size="14.00" fill="#333333">created_at (timestamp)</text>
<polygon fill="#ffffff" stroke="none" points="647.38,-1039.38 647.38,-1078.62 817.88,-1078.62 817.88,-1039.38 647.38,-1039.38"/>
<polygon fill="none" stroke="black" points="647.38,-1039.38 647.38,-1078.62 817.88,-1078.62 817.88,-1039.38 647.38,-1039.38"/>
<text xml:space="preserve" text-anchor="start" x="658.38" y="-1054.33" font-family="Helvetica Neue" font-size="14.00" fill="#333333">updated_at (timestamp)</text>
</g>
<!-- appmodelsbudaya&#45;&gt;appmodelspustaka -->
<g id="edge5" class="edge">
<title>appmodelsbudaya:budaya_id&#45;&gt;appmodelspustaka:budaya_id</title>
<path fill="none" stroke="#fcbf49" stroke-width="1.8" d="M489.5,-1307C489.5,-1307 561.5,-1150.38 561.5,-1150.38 561.5,-1150.38 613.3,-1142.52 635.97,-1139.08"/>
<polygon fill="#fcbf49" stroke="#fcbf49" stroke-width="1.8" points="635.89,-1139.09 646.45,-1142.04 641.43,-1138.25 645.18,-1137.68 645.18,-1137.68 645.18,-1137.68 641.43,-1138.25 645.1,-1133.14 635.89,-1139.09"/>
<text xml:space="preserve" text-anchor="middle" x="563.75" y="-1154.33" font-family="Helvetica Neue" font-size="14.00"> </text>
<text xml:space="preserve" text-anchor="middle" x="568.98" y="-1198.42" font-family="Helvetica Neue" font-size="14.00">HasMany</text>
<text xml:space="preserve" text-anchor="middle" x="568.98" y="-1181.17" font-family="Helvetica Neue" font-size="14.00">pustaka</text>
</g>
<!-- appmodelscomment -->
<g id="node8" class="node">
<title>appmodelscomment</title>
<polygon fill="none" stroke="black" points="1146.25,-1123 975.75,-1123 975.75,-848.25 1146.25,-848.25 1146.25,-1123"/>
<polygon fill="#d3d3d3" stroke="none" points="975.75,-1083.75 975.75,-1123 1146.25,-1123 1146.25,-1083.75 975.75,-1083.75"/>
<polygon fill="none" stroke="black" points="975.75,-1083.75 975.75,-1123 1146.25,-1123 1146.25,-1083.75 975.75,-1083.75"/>
<text xml:space="preserve" text-anchor="start" x="1032.12" y="-1098.7" font-family="Helvetica Neue" font-size="14.00" fill="#333333">comment</text>
<polygon fill="#ffffff" stroke="none" points="975.75,-1044.5 975.75,-1083.75 1146.25,-1083.75 1146.25,-1044.5 975.75,-1044.5"/>
<polygon fill="none" stroke="black" points="975.75,-1044.5 975.75,-1083.75 1146.25,-1083.75 1146.25,-1044.5 975.75,-1044.5"/>
<text xml:space="preserve" text-anchor="start" x="986.75" y="-1059.45" font-family="Helvetica Neue" font-size="14.00" fill="#333333">comment_id (bigint)</text>
<polygon fill="#ffffff" stroke="none" points="975.75,-1005.25 975.75,-1044.5 1146.25,-1044.5 1146.25,-1005.25 975.75,-1005.25"/>
<polygon fill="none" stroke="black" points="975.75,-1005.25 975.75,-1044.5 1146.25,-1044.5 1146.25,-1005.25 975.75,-1005.25"/>
<text xml:space="preserve" text-anchor="start" x="986.75" y="-1020.2" font-family="Helvetica Neue" font-size="14.00" fill="#333333">comment (text)</text>
<polygon fill="#ffffff" stroke="none" points="975.75,-966 975.75,-1005.25 1146.25,-1005.25 1146.25,-966 975.75,-966"/>
<polygon fill="none" stroke="black" points="975.75,-966 975.75,-1005.25 1146.25,-1005.25 1146.25,-966 975.75,-966"/>
<text xml:space="preserve" text-anchor="start" x="986.75" y="-980.95" font-family="Helvetica Neue" font-size="14.00" fill="#333333">user_id (bigint)</text>
<polygon fill="#ffffff" stroke="none" points="975.75,-926.75 975.75,-966 1146.25,-966 1146.25,-926.75 975.75,-926.75"/>
<polygon fill="none" stroke="black" points="975.75,-926.75 975.75,-966 1146.25,-966 1146.25,-926.75 975.75,-926.75"/>
<text xml:space="preserve" text-anchor="start" x="986.75" y="-941.7" font-family="Helvetica Neue" font-size="14.00" fill="#333333">artikel_id (bigint)</text>
<polygon fill="#ffffff" stroke="none" points="975.75,-887.5 975.75,-926.75 1146.25,-926.75 1146.25,-887.5 975.75,-887.5"/>
<polygon fill="none" stroke="black" points="975.75,-887.5 975.75,-926.75 1146.25,-926.75 1146.25,-887.5 975.75,-887.5"/>
<text xml:space="preserve" text-anchor="start" x="986.75" y="-902.45" font-family="Helvetica Neue" font-size="14.00" fill="#333333">created_at (timestamp)</text>
<polygon fill="#ffffff" stroke="none" points="975.75,-848.25 975.75,-887.5 1146.25,-887.5 1146.25,-848.25 975.75,-848.25"/>
<polygon fill="none" stroke="black" points="975.75,-848.25 975.75,-887.5 1146.25,-887.5 1146.25,-848.25 975.75,-848.25"/>
<text xml:space="preserve" text-anchor="start" x="986.75" y="-863.2" font-family="Helvetica Neue" font-size="14.00" fill="#333333">updated_at (timestamp)</text>
</g>
<!-- appmodelsuser&#45;&gt;appmodelscomment -->
<g id="edge10" class="edge">
<title>appmodelsuser:user_id&#45;&gt;appmodelscomment:user_id</title>
<path fill="none" stroke="#fcbf49" stroke-width="1.8" d="M827.25,-892C827.25,-892 899.25,-884.38 899.25,-884.38 899.25,-884.38 903.75,-884.38 903.75,-884.38 903.75,-884.38 952.2,-952.51 969.61,-976.99"/>
<polygon fill="#fcbf49" stroke="#fcbf49" stroke-width="1.8" points="969.61,-976.98 971.73,-987.74 972.85,-981.55 975.05,-984.64 975.05,-984.64 975.05,-984.64 972.85,-981.55 979.07,-982.53 969.61,-976.98"/>
<text xml:space="preserve" text-anchor="middle" x="901.5" y="-888.33" font-family="Helvetica Neue" font-size="14.00"> </text>
<text xml:space="preserve" text-anchor="middle" x="882.52" y="-920.55" font-family="Helvetica Neue" font-size="14.00">HasMany</text>
<text xml:space="preserve" text-anchor="middle" x="882.52" y="-903.3" font-family="Helvetica Neue" font-size="14.00">comments</text>
</g>
<!-- appmodelspustaka&#45;&gt;appmodelsbudaya -->
<g id="edge9" class="edge">
<title>appmodelspustaka:budaya_id&#45;&gt;appmodelsbudaya:budaya_id</title>
<path fill="none" stroke="#fcbf49" stroke-width="1.8" d="M646.38,-1137.5C646.38,-1137.5 527.34,-1266.12 496.65,-1299.28"/>
<polygon fill="#fcbf49" stroke="#fcbf49" stroke-width="1.8" points="496.7,-1299.22 486.61,-1303.5 492.9,-1303.33 490.32,-1306.12 490.32,-1306.12 490.32,-1306.12 492.9,-1303.33 493.21,-1309.61 496.7,-1299.22"/>
<text xml:space="preserve" text-anchor="middle" x="563.75" y="-1231.28" font-family="Helvetica Neue" font-size="14.00"> </text>
<text xml:space="preserve" text-anchor="middle" x="599.26" y="-1239.59" font-family="Helvetica Neue" font-size="14.00">HasMany</text>
<text xml:space="preserve" text-anchor="middle" x="599.26" y="-1222.34" font-family="Helvetica Neue" font-size="14.00">budaya</text>
</g>
<!-- appmodelsevent -->
<g id="node5" class="node">
<title>appmodelsevent</title>
<polygon fill="none" stroke="black" points="489.5,-353.25 319,-353.25 319,0 489.5,0 489.5,-353.25"/>
<polygon fill="#d3d3d3" stroke="none" points="319,-314 319,-353.25 489.5,-353.25 489.5,-314 319,-314"/>
<polygon fill="none" stroke="black" points="319,-314 319,-353.25 489.5,-353.25 489.5,-314 319,-314"/>
<text xml:space="preserve" text-anchor="start" x="387.38" y="-328.95" font-family="Helvetica Neue" font-size="14.00" fill="#333333">Event</text>
<polygon fill="#ffffff" stroke="none" points="319,-274.75 319,-314 489.5,-314 489.5,-274.75 319,-274.75"/>
<polygon fill="none" stroke="black" points="319,-274.75 319,-314 489.5,-314 489.5,-274.75 319,-274.75"/>
<text xml:space="preserve" text-anchor="start" x="330" y="-289.7" font-family="Helvetica Neue" font-size="14.00" fill="#333333">event_id (bigint)</text>
<polygon fill="#ffffff" stroke="none" points="319,-235.5 319,-274.75 489.5,-274.75 489.5,-235.5 319,-235.5"/>
<polygon fill="none" stroke="black" points="319,-235.5 319,-274.75 489.5,-274.75 489.5,-235.5 319,-235.5"/>
<text xml:space="preserve" text-anchor="start" x="330" y="-250.45" font-family="Helvetica Neue" font-size="14.00" fill="#333333">nama (varchar)</text>
<polygon fill="#ffffff" stroke="none" points="319,-196.25 319,-235.5 489.5,-235.5 489.5,-196.25 319,-196.25"/>
<polygon fill="none" stroke="black" points="319,-196.25 319,-235.5 489.5,-235.5 489.5,-196.25 319,-196.25"/>
<text xml:space="preserve" text-anchor="start" x="330" y="-211.2" font-family="Helvetica Neue" font-size="14.00" fill="#333333">deskripsi (text)</text>
<polygon fill="#ffffff" stroke="none" points="319,-157 319,-196.25 489.5,-196.25 489.5,-157 319,-157"/>
<polygon fill="none" stroke="black" points="319,-157 319,-196.25 489.5,-196.25 489.5,-157 319,-157"/>
<text xml:space="preserve" text-anchor="start" x="330" y="-171.95" font-family="Helvetica Neue" font-size="14.00" fill="#333333">jadwal (timestamp)</text>
<polygon fill="#ffffff" stroke="none" points="319,-117.75 319,-157 489.5,-157 489.5,-117.75 319,-117.75"/>
<polygon fill="none" stroke="black" points="319,-117.75 319,-157 489.5,-157 489.5,-117.75 319,-117.75"/>
<text xml:space="preserve" text-anchor="start" x="330" y="-132.7" font-family="Helvetica Neue" font-size="14.00" fill="#333333">harga_tiket (decimal)</text>
<polygon fill="#ffffff" stroke="none" points="319,-78.5 319,-117.75 489.5,-117.75 489.5,-78.5 319,-78.5"/>
<polygon fill="none" stroke="black" points="319,-78.5 319,-117.75 489.5,-117.75 489.5,-78.5 319,-78.5"/>
<text xml:space="preserve" text-anchor="start" x="330" y="-93.45" font-family="Helvetica Neue" font-size="14.00" fill="#333333">lokasi_id (bigint)</text>
<polygon fill="#ffffff" stroke="none" points="319,-39.25 319,-78.5 489.5,-78.5 489.5,-39.25 319,-39.25"/>
<polygon fill="none" stroke="black" points="319,-39.25 319,-78.5 489.5,-78.5 489.5,-39.25 319,-39.25"/>
<text xml:space="preserve" text-anchor="start" x="330" y="-54.2" font-family="Helvetica Neue" font-size="14.00" fill="#333333">created_at (timestamp)</text>
<polygon fill="#ffffff" stroke="none" points="319,0 319,-39.25 489.5,-39.25 489.5,0 319,0"/>
<polygon fill="none" stroke="black" points="319,0 319,-39.25 489.5,-39.25 489.5,0 319,0"/>
<text xml:space="preserve" text-anchor="start" x="330" y="-14.95" font-family="Helvetica Neue" font-size="14.00" fill="#333333">updated_at (timestamp)</text>
</g>
<!-- appmodelslokasi -->
<g id="node6" class="node">
<title>appmodelslokasi</title>
<polygon fill="none" stroke="black" points="817.88,-326.38 647.38,-326.38 647.38,-90.88 817.88,-90.88 817.88,-326.38"/>
<polygon fill="#d3d3d3" stroke="none" points="647.38,-287.12 647.38,-326.38 817.88,-326.38 817.88,-287.12 647.38,-287.12"/>
<polygon fill="none" stroke="black" points="647.38,-287.12 647.38,-326.38 817.88,-326.38 817.88,-287.12 647.38,-287.12"/>
<text xml:space="preserve" text-anchor="start" x="713.88" y="-302.07" font-family="Helvetica Neue" font-size="14.00" fill="#333333">Lokasi</text>
<polygon fill="#ffffff" stroke="none" points="647.38,-247.88 647.38,-287.12 817.88,-287.12 817.88,-247.88 647.38,-247.88"/>
<polygon fill="none" stroke="black" points="647.38,-247.88 647.38,-287.12 817.88,-287.12 817.88,-247.88 647.38,-247.88"/>
<text xml:space="preserve" text-anchor="start" x="658.38" y="-262.82" font-family="Helvetica Neue" font-size="14.00" fill="#333333">lokasi_id (bigint)</text>
<polygon fill="#ffffff" stroke="none" points="647.38,-208.62 647.38,-247.88 817.88,-247.88 817.88,-208.62 647.38,-208.62"/>
<polygon fill="none" stroke="black" points="647.38,-208.62 647.38,-247.88 817.88,-247.88 817.88,-208.62 647.38,-208.62"/>
<text xml:space="preserve" text-anchor="start" x="658.38" y="-223.57" font-family="Helvetica Neue" font-size="14.00" fill="#333333">nama (varchar)</text>
<polygon fill="#ffffff" stroke="none" points="647.38,-169.38 647.38,-208.62 817.88,-208.62 817.88,-169.38 647.38,-169.38"/>
<polygon fill="none" stroke="black" points="647.38,-169.38 647.38,-208.62 817.88,-208.62 817.88,-169.38 647.38,-169.38"/>
<text xml:space="preserve" text-anchor="start" x="658.38" y="-184.32" font-family="Helvetica Neue" font-size="14.00" fill="#333333">alamat (varchar)</text>
<polygon fill="#ffffff" stroke="none" points="647.38,-130.12 647.38,-169.38 817.88,-169.38 817.88,-130.12 647.38,-130.12"/>
<polygon fill="none" stroke="black" points="647.38,-130.12 647.38,-169.38 817.88,-169.38 817.88,-130.12 647.38,-130.12"/>
<text xml:space="preserve" text-anchor="start" x="658.38" y="-145.07" font-family="Helvetica Neue" font-size="14.00" fill="#333333">created_at (timestamp)</text>
<polygon fill="#ffffff" stroke="none" points="647.38,-90.88 647.38,-130.12 817.88,-130.12 817.88,-90.88 647.38,-90.88"/>
<polygon fill="none" stroke="black" points="647.38,-90.88 647.38,-130.12 817.88,-130.12 817.88,-90.88 647.38,-90.88"/>
<text xml:space="preserve" text-anchor="start" x="658.38" y="-105.83" font-family="Helvetica Neue" font-size="14.00" fill="#333333">updated_at (timestamp)</text>
</g>
<!-- appmodelsevent&#45;&gt;appmodelslokasi -->
<g id="edge6" class="edge">
<title>appmodelsevent:lokasi_id&#45;&gt;appmodelslokasi:lokasi_id</title>
<path fill="none" stroke="#fcbf49" stroke-width="1.8" d="M489.5,-98.12C489.5,-98.12 608.54,-226.65 639.23,-259.78"/>
<polygon fill="#fcbf49" stroke="#fcbf49" stroke-width="1.8" points="639.17,-259.72 642.66,-270.12 642.98,-263.83 645.56,-266.62 645.56,-266.62 645.56,-266.62 642.98,-263.83 649.27,-264 639.17,-259.72"/>
<text xml:space="preserve" text-anchor="middle" x="563.75" y="-181.68" font-family="Helvetica Neue" font-size="14.00"> </text>
<text xml:space="preserve" text-anchor="middle" x="592.11" y="-165.65" font-family="Helvetica Neue" font-size="14.00">HasMany</text>
<text xml:space="preserve" text-anchor="middle" x="592.11" y="-148.4" font-family="Helvetica Neue" font-size="14.00">lokasi</text>
</g>
<!-- appmodelsmakanan -->
<g id="node7" class="node">
<title>appmodelsmakanan</title>
<polygon fill="none" stroke="black" points="489.5,-739.62 319,-739.62 319,-425.62 489.5,-425.62 489.5,-739.62"/>
<polygon fill="#d3d3d3" stroke="none" points="319,-700.38 319,-739.62 489.5,-739.62 489.5,-700.38 319,-700.38"/>
<polygon fill="none" stroke="black" points="319,-700.38 319,-739.62 489.5,-739.62 489.5,-700.38 319,-700.38"/>
<text xml:space="preserve" text-anchor="start" x="376.88" y="-715.33" font-family="Helvetica Neue" font-size="14.00" fill="#333333">Makanan</text>
<polygon fill="#ffffff" stroke="none" points="319,-661.12 319,-700.38 489.5,-700.38 489.5,-661.12 319,-661.12"/>
<polygon fill="none" stroke="black" points="319,-661.12 319,-700.38 489.5,-700.38 489.5,-661.12 319,-661.12"/>
<text xml:space="preserve" text-anchor="start" x="330" y="-676.08" font-family="Helvetica Neue" font-size="14.00" fill="#333333">makanan_id (bigint)</text>
<polygon fill="#ffffff" stroke="none" points="319,-621.88 319,-661.12 489.5,-661.12 489.5,-621.88 319,-621.88"/>
<polygon fill="none" stroke="black" points="319,-621.88 319,-661.12 489.5,-661.12 489.5,-621.88 319,-621.88"/>
<text xml:space="preserve" text-anchor="start" x="330" y="-636.83" font-family="Helvetica Neue" font-size="14.00" fill="#333333">nama (varchar)</text>
<polygon fill="#ffffff" stroke="none" points="319,-582.62 319,-621.88 489.5,-621.88 489.5,-582.62 319,-582.62"/>
<polygon fill="none" stroke="black" points="319,-582.62 319,-621.88 489.5,-621.88 489.5,-582.62 319,-582.62"/>
<text xml:space="preserve" text-anchor="start" x="330" y="-597.58" font-family="Helvetica Neue" font-size="14.00" fill="#333333">deskripsi (text)</text>
<polygon fill="#ffffff" stroke="none" points="319,-543.38 319,-582.62 489.5,-582.62 489.5,-543.38 319,-543.38"/>
<polygon fill="none" stroke="black" points="319,-543.38 319,-582.62 489.5,-582.62 489.5,-543.38 319,-543.38"/>
<text xml:space="preserve" text-anchor="start" x="330" y="-558.33" font-family="Helvetica Neue" font-size="14.00" fill="#333333">lokasi_id (bigint)</text>
<polygon fill="#ffffff" stroke="none" points="319,-504.12 319,-543.38 489.5,-543.38 489.5,-504.12 319,-504.12"/>
<polygon fill="none" stroke="black" points="319,-504.12 319,-543.38 489.5,-543.38 489.5,-504.12 319,-504.12"/>
<text xml:space="preserve" text-anchor="start" x="330" y="-519.08" font-family="Helvetica Neue" font-size="14.00" fill="#333333">user_id (bigint)</text>
<polygon fill="#ffffff" stroke="none" points="319,-464.88 319,-504.12 489.5,-504.12 489.5,-464.88 319,-464.88"/>
<polygon fill="none" stroke="black" points="319,-464.88 319,-504.12 489.5,-504.12 489.5,-464.88 319,-464.88"/>
<text xml:space="preserve" text-anchor="start" x="330" y="-479.82" font-family="Helvetica Neue" font-size="14.00" fill="#333333">created_at (timestamp)</text>
<polygon fill="#ffffff" stroke="none" points="319,-425.62 319,-464.88 489.5,-464.88 489.5,-425.62 319,-425.62"/>
<polygon fill="none" stroke="black" points="319,-425.62 319,-464.88 489.5,-464.88 489.5,-425.62 319,-425.62"/>
<text xml:space="preserve" text-anchor="start" x="330" y="-440.57" font-family="Helvetica Neue" font-size="14.00" fill="#333333">updated_at (timestamp)</text>
</g>
<!-- appmodelsmakanan&#45;&gt;appmodelsuser -->
<g id="edge7" class="edge">
<title>appmodelsmakanan:user_id&#45;&gt;appmodelsuser:user_id</title>
<path fill="none" stroke="#fcbf49" stroke-width="1.8" d="M489.5,-523.75C489.5,-523.75 610.41,-823.59 634.03,-882.15"/>
<polygon fill="#fcbf49" stroke="#fcbf49" stroke-width="1.8" points="634.03,-882.17 633.6,-893.12 636.13,-887.36 637.55,-890.88 637.55,-890.88 637.55,-890.88 636.13,-887.36 641.95,-889.76 634.03,-882.17"/>
<text xml:space="preserve" text-anchor="middle" x="563.75" y="-711.83" font-family="Helvetica Neue" font-size="14.00"> </text>
<text xml:space="preserve" text-anchor="middle" x="534.01" y="-689.65" font-family="Helvetica Neue" font-size="14.00">HasMany</text>
<text xml:space="preserve" text-anchor="middle" x="534.01" y="-672.4" font-family="Helvetica Neue" font-size="14.00">user</text>
</g>
<!-- appmodelsmakanan&#45;&gt;appmodelslokasi -->
<g id="edge8" class="edge">
<title>appmodelsmakanan:lokasi_id&#45;&gt;appmodelslokasi:lokasi</title>
<path fill="none" stroke="#fcbf49" stroke-width="1.8" d="M489.5,-563C489.5,-563 575.48,-437.16 644.97,-335.45"/>
<polygon fill="#fcbf49" stroke="#fcbf49" stroke-width="1.8" points="645.02,-335.38 654.38,-329.66 648.18,-330.76 650.32,-327.62 650.32,-327.62 650.32,-327.62 648.18,-330.76 646.95,-324.59 645.02,-335.38"/>
<text xml:space="preserve" text-anchor="middle" x="563.75" y="-457.31" font-family="Helvetica Neue" font-size="14.00"> </text>
<text xml:space="preserve" text-anchor="middle" x="539.48" y="-435.93" font-family="Helvetica Neue" font-size="14.00">HasMany</text>
<text xml:space="preserve" text-anchor="middle" x="539.48" y="-418.68" font-family="Helvetica Neue" font-size="14.00">lokasi</text>
</g>
<!-- appmodelscomment&#45;&gt;appmodelsartikel -->
<g id="edge11" class="edge">
<title>appmodelscomment:artikel_id&#45;&gt;appmodelsartikel:artikel_id</title>
<path fill="none" stroke="#f77f00" stroke-width="1.8" d="M972.92,-956.32C952.39,-1028.39 827.25,-1467.62 827.25,-1467.62 827.25,-1467.62 235.51,-1506.37 175.41,-1510.3"/>
<polygon fill="#f77f00" stroke="#f77f00" stroke-width="1.8" points="972.85,-956.57 979.91,-948.19 974.38,-951.18 975.42,-947.53 975.42,-947.53 975.42,-947.53 974.38,-951.18 971.26,-945.72 972.85,-956.57"/>
<polygon fill="#f77f00" stroke="#f77f00" stroke-width="1.8" points="171.82,-1515.55 171.17,-1505.57 173.17,-1505.44 173.82,-1515.42 171.82,-1515.55"/>
<polyline fill="none" stroke="#f77f00" stroke-width="1.8" points="170.5,-1510.62 175.49,-1510.3"/>
<text xml:space="preserve" text-anchor="middle" x="563.75" y="-1488.88" font-family="Helvetica Neue" font-size="14.00"> </text>
<text xml:space="preserve" text-anchor="middle" x="735.84" y="-1458.3" font-family="Helvetica Neue" font-size="14.00">BelongsTo</text>
<text xml:space="preserve" text-anchor="middle" x="735.84" y="-1441.05" font-family="Helvetica Neue" font-size="14.00">artikel</text>
</g>
<!-- appmodelscomment&#45;&gt;appmodelsuser -->
<g id="edge12" class="edge">
<title>appmodelscomment:user_id&#45;&gt;appmodelsuser:user_id</title>
<path fill="none" stroke="#f77f00" stroke-width="1.8" d="M966.95,-980.08C938.69,-962.26 850.96,-906.95 831.22,-894.5"/>
<polygon fill="#f77f00" stroke="#f77f00" stroke-width="1.8" points="966.78,-979.97 972.84,-989.11 971.52,-982.96 974.73,-984.98 974.73,-984.98 974.73,-984.98 971.52,-982.96 977.64,-981.5 966.78,-979.97"/>
<polygon fill="#f77f00" stroke="#f77f00" stroke-width="1.8" points="825.43,-896.76 830.76,-888.3 832.45,-889.37 827.12,-897.83 825.43,-896.76"/>
<polyline fill="none" stroke="#f77f00" stroke-width="1.8" points="827.25,-892 831.48,-894.67"/>
<text xml:space="preserve" text-anchor="middle" x="901.5" y="-942.76" font-family="Helvetica Neue" font-size="14.00"> </text>
<text xml:space="preserve" text-anchor="middle" x="868.34" y="-958.49" font-family="Helvetica Neue" font-size="14.00">BelongsTo</text>
<text xml:space="preserve" text-anchor="middle" x="868.34" y="-941.24" font-family="Helvetica Neue" font-size="14.00">user</text>
</g>
</g>
</svg>
